<?xml version="1.0" encoding="UTF-8" standalone="no"?>
<svg
   xmlns:dc="http://purl.org/dc/elements/1.1/"
   xmlns:cc="http://creativecommons.org/ns#"
   xmlns:rdf="http://www.w3.org/1999/02/22-rdf-syntax-ns#"
   xmlns:svg="http://www.w3.org/2000/svg"
   xmlns="http://www.w3.org/2000/svg"
   xmlns:xlink="http://www.w3.org/1999/xlink"
   xmlns:sodipodi="http://sodipodi.sourceforge.net/DTD/sodipodi-0.dtd"
   xmlns:inkscape="http://www.inkscape.org/namespaces/inkscape"
   sodipodi:docname="sandvich.svg"
   inkscape:version="1.0 (4035a4fb49, 2020-05-01)"
   inkscape:export-ydpi="192"
   inkscape:export-xdpi="192"
   inkscape:export-filename="C:\Users\Tony\movingdoorssign.png"
   id="svg8"
   version="1.1"
   viewBox="0 0 135.46667 135.46667"
   height="512"
   width="512">
  <defs
     id="defs2">
    <inkscape:path-effect
       message="Use fill-rule evenodd on &lt;b&gt;fill and stroke&lt;/b&gt; dialog if no flatten result after convert clip to paths."
       hide_clip="false"
       flatten="false"
       inverse="true"
       lpeversion="1"
       is_visible="true"
       id="path-effect1997"
       effect="powerclip" />
    <marker
       inkscape:isstock="true"
       style="overflow:visible;"
       id="marker1609"
       refX="0.0"
       refY="0.0"
       orient="auto"
       inkscape:stockid="Arrow1Mend">
      <path
         transform="scale(0.4) rotate(180) translate(10,0)"
         style="fill-rule:evenodd;stroke:#c4b38a;stroke-width:1pt;stroke-opacity:1;fill:#c4b38a;fill-opacity:1"
         d="M 0.0,0.0 L 5.0,-5.0 L -12.5,0.0 L 5.0,5.0 L 0.0,0.0 z "
         id="path1607" />
    </marker>
    <inkscape:path-effect
       effect="powerclip"
       id="path-effect1600"
       is_visible="true"
       lpeversion="1"
       inverse="true"
       flatten="false"
       hide_clip="false"
       message="Use fill-rule evenodd on &lt;b&gt;fill and stroke&lt;/b&gt; dialog if no flatten result after convert clip to paths." />
    <inkscape:path-effect
       message="Use fill-rule evenodd on &lt;b&gt;fill and stroke&lt;/b&gt; dialog if no flatten result after convert clip to paths."
       hide_clip="false"
       flatten="false"
       inverse="true"
       lpeversion="1"
       is_visible="true"
       id="path-effect1460"
       effect="powerclip" />
    <marker
       inkscape:collect="always"
       inkscape:isstock="true"
       style="overflow:visible;"
       id="Arrow1Mend"
       refX="0.0"
       refY="0.0"
       orient="auto"
       inkscape:stockid="Arrow1Mend">
      <path
         transform="scale(0.4) rotate(180) translate(10,0)"
         style="fill-rule:evenodd;stroke:#c4b38a;stroke-width:1pt;stroke-opacity:1;fill:#c4b38a;fill-opacity:1"
         d="M 0.0,0.0 L 5.0,-5.0 L -12.5,0.0 L 5.0,5.0 L 0.0,0.0 z "
         id="path999" />
    </marker>
    <marker
       inkscape:isstock="true"
       style="overflow:visible;"
       id="marker1618"
       refX="0.0"
       refY="0.0"
       orient="auto"
       inkscape:stockid="Arrow1Lend">
      <path
         transform="scale(0.8) rotate(180) translate(12.5,0)"
         style="fill-rule:evenodd;stroke:#000000;stroke-width:1pt;stroke-opacity:1;fill:#000000;fill-opacity:1"
         d="M 0.0,0.0 L 5.0,-5.0 L -12.5,0.0 L 5.0,5.0 L 0.0,0.0 z "
         id="path1616" />
    </marker>
    <marker
       inkscape:isstock="true"
       style="overflow:visible"
       id="StopS"
       refX="0.0"
       refY="0.0"
       orient="auto"
       inkscape:stockid="StopS">
      <path
         transform="scale(0.2)"
         style="fill:none;fill-opacity:0.75;fill-rule:evenodd;stroke:#000000;stroke-width:1pt;stroke-opacity:1"
         d="M 0.0,5.65 L 0.0,-5.65"
         id="path1165" />
    </marker>
    <marker
       inkscape:isstock="true"
       style="overflow:visible"
       id="TriangleOutS"
       refX="0.0"
       refY="0.0"
       orient="auto"
       inkscape:stockid="TriangleOutS">
      <path
         transform="scale(0.2)"
         style="fill-rule:evenodd;stroke:#000000;stroke-width:1pt;stroke-opacity:1;fill:#000000;fill-opacity:1"
         d="M 5.77,0.0 L -2.88,5.0 L -2.88,-5.0 L 5.77,0.0 z "
         id="path1138" />
    </marker>
    <marker
       inkscape:isstock="true"
       style="overflow:visible"
       id="TriangleInM"
       refX="0.0"
       refY="0.0"
       orient="auto"
       inkscape:stockid="TriangleInM">
      <path
         transform="scale(-0.4)"
         style="fill-rule:evenodd;stroke:#000000;stroke-width:1pt;stroke-opacity:1;fill:#000000;fill-opacity:1"
         d="M 5.77,0.0 L -2.88,5.0 L -2.88,-5.0 L 5.77,0.0 z "
         id="path1126" />
    </marker>
    <marker
       inkscape:isstock="true"
       style="overflow:visible;"
       id="Arrow1Send"
       refX="0.0"
       refY="0.0"
       orient="auto"
       inkscape:stockid="Arrow1Send">
      <path
         transform="scale(0.2) rotate(180) translate(6,0)"
         style="fill-rule:evenodd;stroke:#000000;stroke-width:1pt;stroke-opacity:1;fill:#000000;fill-opacity:1"
         d="M 0.0,0.0 L 5.0,-5.0 L -12.5,0.0 L 5.0,5.0 L 0.0,0.0 z "
         id="path1005" />
    </marker>
    <marker
       inkscape:isstock="true"
       style="overflow:visible;"
       id="Arrow1Lend"
       refX="0.0"
       refY="0.0"
       orient="auto"
       inkscape:stockid="Arrow1Lend">
      <path
         transform="scale(0.8) rotate(180) translate(12.5,0)"
         style="fill-rule:evenodd;stroke:#000000;stroke-width:1pt;stroke-opacity:1;fill:#000000;fill-opacity:1"
         d="M 0.0,0.0 L 5.0,-5.0 L -12.5,0.0 L 5.0,5.0 L 0.0,0.0 z "
         id="path993" />
    </marker>
    <linearGradient
       id="linearGradient982"
       inkscape:collect="always">
      <stop
         id="stop978"
         offset="0"
         style="stop-color:#7aad74;stop-opacity:1" />
      <stop
         id="stop980"
         offset="1"
         style="stop-color:#385935;stop-opacity:0.9464286" />
    </linearGradient>
    <linearGradient
       gradientTransform="matrix(0.39782764,0.06155013,-0.0953015,0.40638702,16.288055,129.93114)"
       y2="208.51312"
       x2="122.84294"
       y1="196.94914"
       x1="123.83021"
       gradientUnits="userSpaceOnUse"
       id="linearGradient986"
       xlink:href="#linearGradient982"
       inkscape:collect="always" />
    <clipPath
       id="clipPath1450"
       clipPathUnits="userSpaceOnUse">
      <ellipse
         transform="matrix(0.92490163,-0.38020648,0.36150038,0.93237196,0,0)"
         ry="16.14072"
         rx="29.767984"
         cy="211.03171"
         cx="115.94105"
         id="ellipse1452"
         style="display:block;opacity:1;fill:#9370db;fill-opacity:1;stroke:#000000;stroke-width:0.500049;stroke-linecap:round;stroke-linejoin:round;stroke-miterlimit:4;stroke-dasharray:none;stroke-dashoffset:17.0079;stroke-opacity:0;paint-order:markers fill stroke" />
    </clipPath>
    <clipPath
       clipPathUnits="userSpaceOnUse"
       id="clipath_lpe_path-effect1600">
      <ellipse
         style="display:none;opacity:1;fill:#9370db;fill-opacity:1;stroke:#000000;stroke-width:0.500049;stroke-linecap:round;stroke-linejoin:round;stroke-miterlimit:4;stroke-dasharray:none;stroke-dashoffset:17.0079;stroke-opacity:0;paint-order:markers fill stroke"
         id="ellipse1602"
         cx="115.94105"
         cy="211.03171"
         rx="29.767984"
         ry="16.14072"
         transform="matrix(0.92490163,-0.38020648,0.36150038,0.93237196,0,0)" />
    </clipPath>
    <clipPath
       id="clipPath1983"
       clipPathUnits="userSpaceOnUse">
      <g
         style="display:block;stroke-width:1.20571"
         transform="matrix(0.69717673,-0.03194508,0.04330589,0.98468463,-222.28537,-67.394587)"
         id="g1989">
        <ellipse
           ry="17.953869"
           rx="39.430645"
           cy="296.28189"
           cx="463.41284"
           id="ellipse1985"
           style="opacity:1;fill:#9370db;fill-opacity:1;stroke:#000000;stroke-width:0.602854;stroke-linecap:round;stroke-linejoin:round;stroke-miterlimit:4;stroke-dasharray:none;stroke-dashoffset:17.0079;stroke-opacity:0;paint-order:markers fill stroke" />
        <ellipse
           style="opacity:1;fill:#9370db;fill-opacity:1;stroke:#000000;stroke-width:0.602854;stroke-linecap:round;stroke-linejoin:round;stroke-miterlimit:4;stroke-dasharray:none;stroke-dashoffset:17.0079;stroke-opacity:0;paint-order:markers fill stroke"
           id="ellipse1987"
           cx="458.64615"
           cy="318.77151"
           rx="18.70982"
           ry="10.205357" />
      </g>
    </clipPath>
  </defs>
  <sodipodi:namedview
     inkscape:document-rotation="0"
     showguides="false"
     inkscape:window-maximized="1"
     inkscape:window-y="-8"
     inkscape:window-x="-8"
     inkscape:window-height="1027"
     inkscape:window-width="1920"
     inkscape:showpageshadow="false"
     borderlayer="true"
     inkscape:pagecheckerboard="true"
     units="px"
     showgrid="false"
     inkscape:current-layer="layer1"
     inkscape:document-units="mm"
     inkscape:cy="266.55449"
     inkscape:cx="270.12883"
     inkscape:zoom="1.4"
     inkscape:pageshadow="2"
     inkscape:pageopacity="0.0"
     borderopacity="1.0"
     bordercolor="#666666"
     pagecolor="#ffffff"
     id="base" />
  <metadata
     id="metadata5">
    <rdf:RDF>
      <cc:Work
         rdf:about="">
        <dc:format>image/svg+xml</dc:format>
        <dc:type
           rdf:resource="http://purl.org/dc/dcmitype/StillImage" />
        <dc:title></dc:title>
      </cc:Work>
    </rdf:RDF>
  </metadata>
  <g
     transform="translate(0,-161.53339)"
     id="layer1"
     inkscape:groupmode="layer"
     inkscape:label="Layer 1">
    <g
       style="stroke-width:0.97090364"
       transform="matrix(1.0445877,0.04643972,-0.04594039,1.0135112,8.4703928,-9.9733587)"
       id="g847">
      <g
         transform="matrix(2.4487147,0,0,2.4487147,-52.616611,-313.08551)"
         id="g2847">
        <g
           transform="matrix(0.95539024,-0.04377658,0.04330589,0.98468463,-7.6606254,10.191418)"
           id="g841">
          <path
             sodipodi:nodetypes="ssccs"
             inkscape:connector-curvature="0"
             id="path835"
             d="m 52.366948,202.97768 c -1.726962,12.74002 -26.243319,34.90635 -22.994706,35.86435 10.195967,3.00675 38.647851,0 38.647851,0 l -6.249506,-38.86585 c -3.544115,-10.31315 -9.033005,0.26728 -9.403639,3.0015 z"
             style="fill:#7e654a;fill-opacity:1;stroke:none;stroke-width:0.26458332px;stroke-linecap:butt;stroke-linejoin:miter;stroke-opacity:1" />
          <path
             style="fill:#e5dcd3;fill-opacity:1;stroke:none;stroke-width:0.26458332px;stroke-linecap:butt;stroke-linejoin:miter;stroke-opacity:1"
             d="m 52.729717,203.8476 c -1.726962,12.74002 -24.988922,34.15187 -21.648545,34.71145 11.108024,1.86084 36.73231,-1.00538 36.73231,-1.00538 l -6.042895,-37.57749 c -3.544115,-10.31315 -8.670236,1.1372 -9.04087,3.87142 z"
             id="path837"
             inkscape:connector-curvature="0"
             sodipodi:nodetypes="ssccs" />
        </g>
        <g
           id="g866"
           transform="translate(-36.550026,4.0242505)">
          <path
             style="fill:#bfa2bd;fill-opacity:1;stroke:none;stroke-width:0.2568849px;stroke-linecap:butt;stroke-linejoin:miter;stroke-opacity:1"
             d="m 77.745754,209.72772 c -1.692124,4.52682 -5.286519,4.76841 -5.801448,7.904 -2.033395,12.3821 -0.487718,21.60511 1.735732,21.97758 11.108028,1.86082 12.644313,4.24831 22.85266,-2.71891 11.150952,-7.61055 10.817852,-9.3921 9.389252,-16.7874 -1.02045,-5.28245 -4.66607,-20.76129 -4.66607,-20.76129 -16.487819,-8.02319 -20.444921,2.18589 -23.510126,10.38602 z"
             id="path860"
             inkscape:connector-curvature="0"
             sodipodi:nodetypes="ssssscs" />
          <path
             sodipodi:nodetypes="ssssscs"
             inkscape:connector-curvature="0"
             id="path862"
             d="m 101.49264,200.13699 c -0.64881,-2.44332 -5.310068,0.3211 -7.624661,-0.5619 -9.140091,-3.48687 -13.755095,5.31454 -14.233209,7.68468 -2.388624,11.84089 -10.207968,6.69732 -5.871074,18.47899 4.737361,12.86954 6.108084,12.69342 11.802118,11.91263 4.067242,-0.55771 7.097772,1.38434 7.097772,1.38434 23.331264,-5.38733 12.359334,-25.60427 8.829054,-38.89874 z"
             style="fill:#cdb7cc;fill-opacity:1;stroke:none;stroke-width:0.2568849px;stroke-linecap:butt;stroke-linejoin:miter;stroke-opacity:1" />
          <path
             style="opacity:1;fill:#f9f1b5;fill-opacity:1;stroke:none;stroke-width:0.48545182;stroke-linecap:round;stroke-linejoin:round;stroke-miterlimit:4;stroke-dasharray:none;stroke-dashoffset:17.00786781;stroke-opacity:0;paint-order:markers fill stroke"
             d="m 95.3927,200.19036 a 4.0764293,6.4909427 11.383373 0 1 -4.51778,3.13787 4.0764293,6.4909427 11.383373 0 1 -0.301087,-0.0931 l -2.544834,12.09704 12.765711,2.86339 2.22927,-10.59698 a 2.507674,2.7630926 8.3065591 0 1 -2.37578,0.84668 2.507674,2.7630926 8.3065591 0 1 -1.879704,-3.25216 2.507674,2.7630926 8.3065591 0 1 3.016854,-2.15333 2.507674,2.7630926 8.3065591 0 1 1.82159,1.78762 l 0.56141,-2.66864 z m -0.36507,6.89986 a 2.9115994,3.9591998 10.981723 0 1 2.02651,4.51143 2.9115994,3.9591998 10.981723 0 1 -3.656472,3.23673 2.9115994,3.9591998 10.981723 0 1 -2.026518,-4.51143 2.9115994,3.9591998 10.981723 0 1 3.65648,-3.23673 z"
             id="rect868"
             inkscape:connector-curvature="0" />
          <path
             inkscape:connector-curvature="0"
             id="path885"
             d="m 86.184943,226.70286 a 7.1913736,2.2809005 81.479916 0 1 -0.91195,5.93922 7.1913736,2.2809005 81.479916 0 1 -0.15929,0.10933 l 2.8536,13.1376 6.4007,-5.66256 -2.49975,-11.50852 a 3.1355529,1.3698812 86.109667 0 1 -0.74148,2.36164 3.1355529,1.3698812 86.109667 0 1 -1.86521,-1.84948 3.1355529,1.3698812 86.109667 0 1 0.59009,-4.02098 3.1355529,1.3698812 86.109667 0 1 1.3629,0.49927 l -0.62951,-2.8982 z m 2.09293,6.78045 a 4.4205472,1.6165662 82.995417 0 1 2.33859,2.94689 4.4205472,1.6165662 82.995417 0 1 -0.51085,5.46774 4.4205472,1.6165662 82.995417 0 1 -2.33859,-2.94689 4.4205472,1.6165662 82.995417 0 1 0.51085,-5.46774 z"
             style="opacity:1;fill:#f9f1b5;fill-opacity:1;stroke:none;stroke-width:0.48545182;stroke-linecap:round;stroke-linejoin:round;stroke-miterlimit:4;stroke-dasharray:none;stroke-dashoffset:17.00786781;stroke-opacity:0;paint-order:markers fill stroke" />
          <path
             style="opacity:1;fill:#f9f1b5;fill-opacity:1;stroke:none;stroke-width:0.48545182;stroke-linecap:round;stroke-linejoin:round;stroke-miterlimit:4;stroke-dasharray:none;stroke-dashoffset:17.00786781;stroke-opacity:0;paint-order:markers fill stroke"
             d="m 82.246728,207.65946 a 2.2997211,7.1325205 31.332516 0 1 -4.476691,3.85352 2.2997211,7.1325205 31.332516 0 1 -0.189857,-0.0256 l -6.229777,11.82469 8.438804,0.0742 5.457276,-10.35842 a 1.3850035,3.101317 35.826604 0 1 -2.065753,1.27556 1.3850035,3.101317 35.826604 0 1 -0.226482,-2.65638 1.3850035,3.101317 35.826604 0 1 3.010217,-2.62742 1.3850035,3.101317 35.826604 0 1 0.70913,1.29945 l 1.374313,-2.60857 z m -2.747641,6.5231 a 1.6314159,4.38031 32.791405 0 1 -0.1167,3.80337 1.6314159,4.38031 32.791405 0 1 -3.873463,3.77035 1.6314159,4.38031 32.791405 0 1 0.116699,-3.80337 1.6314159,4.38031 32.791405 0 1 3.873464,-3.77035 z"
             id="path887"
             inkscape:connector-curvature="0" />
          <g
             id="g910"
             transform="translate(36.082808,11.268943)">
            <ellipse
               ry="5.9008451"
               rx="5.4126391"
               transform="matrix(0.99895189,-0.04577259,0.04393699,0.9990343,0,0)"
               cy="202.5766"
               cx="40.086849"
               id="path889"
               style="opacity:1;fill:#f17052;fill-opacity:1;stroke:#ba3e37;stroke-width:1.06799483;stroke-linecap:round;stroke-linejoin:round;stroke-miterlimit:4;stroke-dasharray:none;stroke-dashoffset:17.00786781;stroke-opacity:1;paint-order:markers fill stroke" />
            <ellipse
               style="opacity:1;fill:#f17052;fill-opacity:1;stroke:#ba3e37;stroke-width:0.58254266;stroke-linecap:round;stroke-linejoin:round;stroke-miterlimit:4;stroke-dasharray:none;stroke-dashoffset:17.00786781;stroke-opacity:1;paint-order:markers fill stroke"
               id="ellipse897"
               cx="38.774174"
               cy="200.507"
               transform="matrix(0.99895189,-0.04577258,0.043937,0.9990343,0,0)"
               rx="1.2921206"
               ry="1.3462356" />
            <ellipse
               ry="1.3462356"
               rx="1.2921206"
               transform="matrix(0.99895189,-0.04577258,0.043937,0.9990343,0,0)"
               cy="201.02856"
               cx="42.22192"
               id="ellipse899"
               style="opacity:1;fill:#f17052;fill-opacity:1;stroke:#ba3e37;stroke-width:0.58254266;stroke-linecap:round;stroke-linejoin:round;stroke-miterlimit:4;stroke-dasharray:none;stroke-dashoffset:17.00786781;stroke-opacity:1;paint-order:markers fill stroke" />
            <ellipse
               style="opacity:1;fill:#f17052;fill-opacity:1;stroke:#ba3e37;stroke-width:0.58254266;stroke-linecap:round;stroke-linejoin:round;stroke-miterlimit:4;stroke-dasharray:none;stroke-dashoffset:17.00786781;stroke-opacity:1;paint-order:markers fill stroke"
               id="ellipse901"
               cx="41.84235"
               cy="204.61433"
               transform="matrix(0.99895189,-0.04577258,0.043937,0.9990343,0,0)"
               rx="1.2921206"
               ry="1.3462356" />
            <ellipse
               ry="1.3462356"
               rx="1.2921206"
               transform="matrix(0.99895189,-0.04577258,0.043937,0.9990343,0,0)"
               cy="204.15796"
               cx="38.14156"
               id="ellipse903"
               style="opacity:1;fill:#f17052;fill-opacity:1;stroke:#ba3e37;stroke-width:0.58254266;stroke-linecap:round;stroke-linejoin:round;stroke-miterlimit:4;stroke-dasharray:none;stroke-dashoffset:17.00786781;stroke-opacity:1;paint-order:markers fill stroke" />
          </g>
        </g>
        <g
           id="g964"
           transform="translate(14.583069,20.193577)"
           style="stroke-width:0.97090364">
          <ellipse
             ry="5.9008451"
             rx="5.4126391"
             transform="matrix(0.99895189,-0.04577259,0.04393699,0.9990343,0,0)"
             cy="202.5766"
             cx="40.086849"
             id="ellipse954"
             style="opacity:1;fill:#f17052;fill-opacity:1;stroke:#ba3e37;stroke-width:1.06799483;stroke-linecap:round;stroke-linejoin:round;stroke-miterlimit:4;stroke-dasharray:none;stroke-dashoffset:17.00786781;stroke-opacity:1;paint-order:markers fill stroke" />
          <ellipse
             style="opacity:1;fill:#f17052;fill-opacity:1;stroke:#ba3e37;stroke-width:0.58254266;stroke-linecap:round;stroke-linejoin:round;stroke-miterlimit:4;stroke-dasharray:none;stroke-dashoffset:17.00786781;stroke-opacity:1;paint-order:markers fill stroke"
             id="ellipse956"
             cx="38.774174"
             cy="200.507"
             transform="matrix(0.99895189,-0.04577258,0.043937,0.9990343,0,0)"
             rx="1.2921206"
             ry="1.3462356" />
          <ellipse
             ry="1.3462356"
             rx="1.2921206"
             transform="matrix(0.99895189,-0.04577258,0.043937,0.9990343,0,0)"
             cy="201.02856"
             cx="42.22192"
             id="ellipse958"
             style="opacity:1;fill:#f17052;fill-opacity:1;stroke:#ba3e37;stroke-width:0.58254266;stroke-linecap:round;stroke-linejoin:round;stroke-miterlimit:4;stroke-dasharray:none;stroke-dashoffset:17.00786781;stroke-opacity:1;paint-order:markers fill stroke" />
          <ellipse
             style="opacity:1;fill:#f17052;fill-opacity:1;stroke:#ba3e37;stroke-width:0.58254266;stroke-linecap:round;stroke-linejoin:round;stroke-miterlimit:4;stroke-dasharray:none;stroke-dashoffset:17.00786781;stroke-opacity:1;paint-order:markers fill stroke"
             id="ellipse960"
             cx="41.84235"
             cy="204.61433"
             transform="matrix(0.99895189,-0.04577258,0.043937,0.9990343,0,0)"
             rx="1.2921206"
             ry="1.3462356" />
          <ellipse
             ry="1.3462356"
             rx="1.2921206"
             transform="matrix(0.99895189,-0.04577258,0.043937,0.9990343,0,0)"
             cy="204.15796"
             cx="38.14156"
             id="ellipse962"
             style="opacity:1;fill:#f17052;fill-opacity:1;stroke:#ba3e37;stroke-width:0.58254266;stroke-linecap:round;stroke-linejoin:round;stroke-miterlimit:4;stroke-dasharray:none;stroke-dashoffset:17.00786781;stroke-opacity:1;paint-order:markers fill stroke" />
        </g>
        <path
           style="fill:#5f9659;fill-opacity:1;stroke:none;stroke-width:0.2568849px;stroke-linecap:butt;stroke-linejoin:miter;stroke-opacity:1"
           d="m 47.006378,214.81316 c -3.52982,3.93514 -9.801898,7.31736 -11.183664,11.20826 -4.374358,12.31772 -6.360584,6.89288 -4.655604,14.49162 0.70487,3.14146 19.989597,6.31113 30.197944,-0.65609 11.15095,-7.61055 5.788396,-16.39057 4.359796,-23.78587 -1.02045,-5.28245 -6.981897,-15.82564 -6.981897,-15.82564 -16.48782,-8.02319 -7.579364,9.93315 -11.736575,14.56772 z"
           id="path849"
           inkscape:connector-curvature="0"
           sodipodi:nodetypes="assssca" />
        <g
           style="stroke-width:0.97090364"
           transform="matrix(0.42996901,0.9308756,-0.87638071,0.42839968,199.57362,107.49586)"
           id="g922">
          <ellipse
             style="opacity:1;fill:#f17052;fill-opacity:1;stroke:#ba3e37;stroke-width:1.06799483;stroke-linecap:round;stroke-linejoin:round;stroke-miterlimit:4;stroke-dasharray:none;stroke-dashoffset:17.00786781;stroke-opacity:1;paint-order:markers fill stroke"
             id="ellipse912"
             cx="40.086849"
             cy="202.5766"
             transform="matrix(0.99895189,-0.04577259,0.04393699,0.9990343,0,0)"
             rx="5.4126391"
             ry="5.9008451" />
          <ellipse
             ry="1.3462356"
             rx="1.2921206"
             transform="matrix(0.99895189,-0.04577258,0.043937,0.9990343,0,0)"
             cy="200.507"
             cx="38.774174"
             id="ellipse914"
             style="opacity:1;fill:#f17052;fill-opacity:1;stroke:#ba3e37;stroke-width:0.58254266;stroke-linecap:round;stroke-linejoin:round;stroke-miterlimit:4;stroke-dasharray:none;stroke-dashoffset:17.00786781;stroke-opacity:1;paint-order:markers fill stroke" />
          <ellipse
             style="opacity:1;fill:#f17052;fill-opacity:1;stroke:#ba3e37;stroke-width:0.58254266;stroke-linecap:round;stroke-linejoin:round;stroke-miterlimit:4;stroke-dasharray:none;stroke-dashoffset:17.00786781;stroke-opacity:1;paint-order:markers fill stroke"
             id="ellipse916"
             cx="42.22192"
             cy="201.02856"
             transform="matrix(0.99895189,-0.04577258,0.043937,0.9990343,0,0)"
             rx="1.2921206"
             ry="1.3462356" />
          <ellipse
             ry="1.3462356"
             rx="1.2921206"
             transform="matrix(0.99895189,-0.04577258,0.043937,0.9990343,0,0)"
             cy="204.61433"
             cx="41.84235"
             id="ellipse918"
             style="opacity:1;fill:#f17052;fill-opacity:1;stroke:#ba3e37;stroke-width:0.58254266;stroke-linecap:round;stroke-linejoin:round;stroke-miterlimit:4;stroke-dasharray:none;stroke-dashoffset:17.00786781;stroke-opacity:1;paint-order:markers fill stroke" />
          <ellipse
             style="opacity:1;fill:#f17052;fill-opacity:1;stroke:#ba3e37;stroke-width:0.58254266;stroke-linecap:round;stroke-linejoin:round;stroke-miterlimit:4;stroke-dasharray:none;stroke-dashoffset:17.00786781;stroke-opacity:1;paint-order:markers fill stroke"
             id="ellipse920"
             cx="38.14156"
             cy="204.15796"
             transform="matrix(0.99895189,-0.04577258,0.043937,0.9990343,0,0)"
             rx="1.2921206"
             ry="1.3462356" />
        </g>
        <path
           style="fill:#7e654a;fill-opacity:1;stroke:none;stroke-width:0.2568849px;stroke-linecap:butt;stroke-linejoin:miter;stroke-opacity:1"
           d="m 51.680264,204.37576 c -1.215238,12.80308 -24.822147,35.99416 -21.538054,36.81319 10.307323,2.5706 38.613534,-1.64394 38.613534,-1.64394 l -7.80039,-38.5683 c -3.953972,-10.15397 -9.014281,0.6513 -9.27509,3.39905 z"
           id="path843"
           inkscape:connector-curvature="0"
           sodipodi:nodetypes="ssccs" />
        <path
           sodipodi:nodetypes="ssccs"
           inkscape:connector-curvature="0"
           id="path845"
           d="m 52.077548,205.22954 c -1.215238,12.80308 -23.599078,35.18693 -20.239258,35.60397 11.172681,1.38683 36.659433,-2.56702 36.659433,-2.56702 l -7.542369,-37.28978 c -3.953972,-10.15397 -8.616997,1.50508 -8.877806,4.25283 z"
           style="fill:#e5dcd3;fill-opacity:1;stroke:none;stroke-width:0.2568849px;stroke-linecap:butt;stroke-linejoin:miter;stroke-opacity:1" />
        <g
           id="g2598"
           transform="translate(0.14379733,-2.9080804)"
           style="stroke:#c4b38a;stroke-opacity:1">
          <g
             id="g2581"
             style="stroke:#c4b38a;stroke-width:0.44661567;stroke-miterlimit:4;stroke-dasharray:none;stroke-opacity:1">
            <g
               id="g2805">
              <path
                 style="fill:none;stroke:#c7b790;stroke-width:0.45147017;stroke-linecap:butt;stroke-linejoin:miter;stroke-miterlimit:4;stroke-dasharray:none;stroke-opacity:1"
                 d="m 54.637071,223.52732 0.348215,1.6759 0.348221,1.67594"
                 id="path2566"
                 inkscape:connector-curvature="0"
                 sodipodi:nodetypes="ccc"
                 transform="translate(-0.30134501,-0.67422191)" />
              <ellipse
                 ry="2.6815283"
                 rx="3.851373"
                 transform="matrix(0.99835646,0.05730956,0.03911577,0.99923469,0,0)"
                 cy="220.01122"
                 cx="45.753136"
                 id="path966"
                 style="opacity:1;fill:url(#linearGradient986);fill-opacity:1;stroke:none;stroke-width:0.58390117;stroke-linecap:round;stroke-linejoin:round;stroke-miterlimit:4;stroke-dasharray:none;stroke-dashoffset:17.00786781;stroke-opacity:1;paint-order:markers fill stroke" />
              <path
                 style="fill:none;stroke:#c4b38a;stroke-width:0.09709036;stroke-linecap:butt;stroke-linejoin:bevel;stroke-miterlimit:4;stroke-dasharray:none;stroke-opacity:1;marker-end:url(#Arrow1Mend)"
                 d="m 54.118336,221.37078 -0.224965,-0.81184"
                 id="path988"
                 inkscape:connector-curvature="0" />
              <path
                 sodipodi:nodetypes="ccc"
                 inkscape:connector-curvature="0"
                 id="path1928"
                 d="m 54.03597,221.00597 0.113597,0.46937 0.215107,0.86853"
                 style="fill:none;stroke:#c4b38a;stroke-width:0.44661567;stroke-linecap:butt;stroke-linejoin:miter;stroke-miterlimit:4;stroke-dasharray:none;stroke-opacity:1" />
            </g>
          </g>
        </g>
      </g>
    </g>
    <g
       id="g2925"
       transform="matrix(1.0445877,0.04643972,-0.04594039,1.0135112,8.4703928,-9.9733587)"
       style="stroke-width:0.97090364">
      <g
         id="g2923"
         transform="matrix(2.4487147,0,0,2.4487147,-52.616611,-313.08551)">
        <g
           id="g2853"
           transform="matrix(0.95539024,-0.04377658,0.04330589,0.98468463,-7.6606254,10.191418)">
          <path
             style="fill:#7e654a;fill-opacity:1;stroke:none;stroke-width:0.26458332px;stroke-linecap:butt;stroke-linejoin:miter;stroke-opacity:1"
             d="m 52.366948,202.97768 c -1.726962,12.74002 -26.243319,34.90635 -22.994706,35.86435 10.195967,3.00675 38.647851,0 38.647851,0 l -6.249506,-38.86585 c -3.544115,-10.31315 -9.033005,0.26728 -9.403639,3.0015 z"
             id="path2849"
             inkscape:connector-curvature="0"
             sodipodi:nodetypes="ssccs" />
          <path
             sodipodi:nodetypes="ssccs"
             inkscape:connector-curvature="0"
             id="path2851"
             d="m 52.729717,203.8476 c -1.726962,12.74002 -24.988922,34.15187 -21.648545,34.71145 11.108024,1.86084 36.73231,-1.00538 36.73231,-1.00538 l -6.042895,-37.57749 c -3.544115,-10.31315 -8.670236,1.1372 -9.04087,3.87142 z"
             style="fill:#e5dcd3;fill-opacity:1;stroke:none;stroke-width:0.26458332px;stroke-linecap:butt;stroke-linejoin:miter;stroke-opacity:1" />
        </g>
        <g
           transform="translate(-36.550026,4.0242505)"
           id="g2877">
          <path
             sodipodi:nodetypes="ssssscs"
             inkscape:connector-curvature="0"
             id="path2855"
             d="m 77.745754,209.72772 c -1.692124,4.52682 -5.286519,4.76841 -5.801448,7.904 -2.033395,12.3821 -0.487718,21.60511 1.735732,21.97758 11.108028,1.86082 12.644313,4.24831 22.85266,-2.71891 11.150952,-7.61055 10.817852,-9.3921 9.389252,-16.7874 -1.02045,-5.28245 -4.66607,-20.76129 -4.66607,-20.76129 -16.487819,-8.02319 -20.444921,2.18589 -23.510126,10.38602 z"
             style="fill:#bfa2bd;fill-opacity:1;stroke:none;stroke-width:0.2568849px;stroke-linecap:butt;stroke-linejoin:miter;stroke-opacity:1" />
          <path
             style="fill:#cdb7cc;fill-opacity:1;stroke:none;stroke-width:0.2568849px;stroke-linecap:butt;stroke-linejoin:miter;stroke-opacity:1"
             d="m 101.49264,200.13699 c -0.64881,-2.44332 -5.310068,0.3211 -7.624661,-0.5619 -9.140091,-3.48687 -13.755095,5.31454 -14.233209,7.68468 -2.388624,11.84089 -10.207968,6.69732 -5.871074,18.47899 4.737361,12.86954 6.108084,12.69342 11.802118,11.91263 4.067242,-0.55771 7.097772,1.38434 7.097772,1.38434 23.331264,-5.38733 12.359334,-25.60427 8.829054,-38.89874 z"
             id="path2857"
             inkscape:connector-curvature="0"
             sodipodi:nodetypes="ssssscs" />
          <path
             inkscape:connector-curvature="0"
             id="path2859"
             d="m 95.3927,200.19036 a 4.0764293,6.4909427 11.383373 0 1 -4.51778,3.13787 4.0764293,6.4909427 11.383373 0 1 -0.301087,-0.0931 l -2.544834,12.09704 12.765711,2.86339 2.22927,-10.59698 a 2.507674,2.7630926 8.3065591 0 1 -2.37578,0.84668 2.507674,2.7630926 8.3065591 0 1 -1.879704,-3.25216 2.507674,2.7630926 8.3065591 0 1 3.016854,-2.15333 2.507674,2.7630926 8.3065591 0 1 1.82159,1.78762 l 0.56141,-2.66864 z m -0.36507,6.89986 a 2.9115994,3.9591998 10.981723 0 1 2.02651,4.51143 2.9115994,3.9591998 10.981723 0 1 -3.656472,3.23673 2.9115994,3.9591998 10.981723 0 1 -2.026518,-4.51143 2.9115994,3.9591998 10.981723 0 1 3.65648,-3.23673 z"
             style="opacity:1;fill:#f9f1b5;fill-opacity:1;stroke:none;stroke-width:0.48545182;stroke-linecap:round;stroke-linejoin:round;stroke-miterlimit:4;stroke-dasharray:none;stroke-dashoffset:17.00786781;stroke-opacity:0;paint-order:markers fill stroke" />
          <path
             style="opacity:1;fill:#f9f1b5;fill-opacity:1;stroke:none;stroke-width:0.48545182;stroke-linecap:round;stroke-linejoin:round;stroke-miterlimit:4;stroke-dasharray:none;stroke-dashoffset:17.00786781;stroke-opacity:0;paint-order:markers fill stroke"
             d="m 86.184943,226.70286 a 7.1913736,2.2809005 81.479916 0 1 -0.91195,5.93922 7.1913736,2.2809005 81.479916 0 1 -0.15929,0.10933 l 2.8536,13.1376 6.4007,-5.66256 -2.49975,-11.50852 a 3.1355529,1.3698812 86.109667 0 1 -0.74148,2.36164 3.1355529,1.3698812 86.109667 0 1 -1.86521,-1.84948 3.1355529,1.3698812 86.109667 0 1 0.59009,-4.02098 3.1355529,1.3698812 86.109667 0 1 1.3629,0.49927 l -0.62951,-2.8982 z m 2.09293,6.78045 a 4.4205472,1.6165662 82.995417 0 1 2.33859,2.94689 4.4205472,1.6165662 82.995417 0 1 -0.51085,5.46774 4.4205472,1.6165662 82.995417 0 1 -2.33859,-2.94689 4.4205472,1.6165662 82.995417 0 1 0.51085,-5.46774 z"
             id="path2861"
             inkscape:connector-curvature="0" />
          <path
             inkscape:connector-curvature="0"
             id="path2863"
             d="m 82.246728,207.65946 a 2.2997211,7.1325205 31.332516 0 1 -4.476691,3.85352 2.2997211,7.1325205 31.332516 0 1 -0.189857,-0.0256 l -6.229777,11.82469 8.438804,0.0742 5.457276,-10.35842 a 1.3850035,3.101317 35.826604 0 1 -2.065753,1.27556 1.3850035,3.101317 35.826604 0 1 -0.226482,-2.65638 1.3850035,3.101317 35.826604 0 1 3.010217,-2.62742 1.3850035,3.101317 35.826604 0 1 0.70913,1.29945 l 1.374313,-2.60857 z m -2.747641,6.5231 a 1.6314159,4.38031 32.791405 0 1 -0.1167,3.80337 1.6314159,4.38031 32.791405 0 1 -3.873463,3.77035 1.6314159,4.38031 32.791405 0 1 0.116699,-3.80337 1.6314159,4.38031 32.791405 0 1 3.873464,-3.77035 z"
             style="opacity:1;fill:#f9f1b5;fill-opacity:1;stroke:none;stroke-width:0.48545182;stroke-linecap:round;stroke-linejoin:round;stroke-miterlimit:4;stroke-dasharray:none;stroke-dashoffset:17.00786781;stroke-opacity:0;paint-order:markers fill stroke" />
          <g
             transform="translate(36.082808,11.268943)"
             id="g2875">
            <ellipse
               style="opacity:1;fill:#f17052;fill-opacity:1;stroke:#ba3e37;stroke-width:1.06799483;stroke-linecap:round;stroke-linejoin:round;stroke-miterlimit:4;stroke-dasharray:none;stroke-dashoffset:17.00786781;stroke-opacity:1;paint-order:markers fill stroke"
               id="ellipse2865"
               cx="40.086849"
               cy="202.5766"
               transform="matrix(0.99895189,-0.04577259,0.04393699,0.9990343,0,0)"
               rx="5.4126391"
               ry="5.9008451" />
            <ellipse
               ry="1.3462356"
               rx="1.2921206"
               transform="matrix(0.99895189,-0.04577258,0.043937,0.9990343,0,0)"
               cy="200.507"
               cx="38.774174"
               id="ellipse2867"
               style="opacity:1;fill:#f17052;fill-opacity:1;stroke:#ba3e37;stroke-width:0.58254266;stroke-linecap:round;stroke-linejoin:round;stroke-miterlimit:4;stroke-dasharray:none;stroke-dashoffset:17.00786781;stroke-opacity:1;paint-order:markers fill stroke" />
            <ellipse
               style="opacity:1;fill:#f17052;fill-opacity:1;stroke:#ba3e37;stroke-width:0.58254266;stroke-linecap:round;stroke-linejoin:round;stroke-miterlimit:4;stroke-dasharray:none;stroke-dashoffset:17.00786781;stroke-opacity:1;paint-order:markers fill stroke"
               id="ellipse2869"
               cx="42.22192"
               cy="201.02856"
               transform="matrix(0.99895189,-0.04577258,0.043937,0.9990343,0,0)"
               rx="1.2921206"
               ry="1.3462356" />
            <ellipse
               ry="1.3462356"
               rx="1.2921206"
               transform="matrix(0.99895189,-0.04577258,0.043937,0.9990343,0,0)"
               cy="204.61433"
               cx="41.84235"
               id="ellipse2871"
               style="opacity:1;fill:#f17052;fill-opacity:1;stroke:#ba3e37;stroke-width:0.58254266;stroke-linecap:round;stroke-linejoin:round;stroke-miterlimit:4;stroke-dasharray:none;stroke-dashoffset:17.00786781;stroke-opacity:1;paint-order:markers fill stroke" />
            <ellipse
               style="opacity:1;fill:#f17052;fill-opacity:1;stroke:#ba3e37;stroke-width:0.58254266;stroke-linecap:round;stroke-linejoin:round;stroke-miterlimit:4;stroke-dasharray:none;stroke-dashoffset:17.00786781;stroke-opacity:1;paint-order:markers fill stroke"
               id="ellipse2873"
               cx="38.14156"
               cy="204.15796"
               transform="matrix(0.99895189,-0.04577258,0.043937,0.9990343,0,0)"
               rx="1.2921206"
               ry="1.3462356" />
          </g>
        </g>
        <g
           style="stroke-width:0.97090364"
           transform="translate(14.583069,20.193577)"
           id="g2889">
          <ellipse
             style="opacity:1;fill:#f17052;fill-opacity:1;stroke:#ba3e37;stroke-width:1.06799483;stroke-linecap:round;stroke-linejoin:round;stroke-miterlimit:4;stroke-dasharray:none;stroke-dashoffset:17.00786781;stroke-opacity:1;paint-order:markers fill stroke"
             id="ellipse2879"
             cx="40.086849"
             cy="202.5766"
             transform="matrix(0.99895189,-0.04577259,0.04393699,0.9990343,0,0)"
             rx="5.4126391"
             ry="5.9008451" />
          <ellipse
             ry="1.3462356"
             rx="1.2921206"
             transform="matrix(0.99895189,-0.04577258,0.043937,0.9990343,0,0)"
             cy="200.507"
             cx="38.774174"
             id="ellipse2881"
             style="opacity:1;fill:#f17052;fill-opacity:1;stroke:#ba3e37;stroke-width:0.58254266;stroke-linecap:round;stroke-linejoin:round;stroke-miterlimit:4;stroke-dasharray:none;stroke-dashoffset:17.00786781;stroke-opacity:1;paint-order:markers fill stroke" />
          <ellipse
             style="opacity:1;fill:#f17052;fill-opacity:1;stroke:#ba3e37;stroke-width:0.58254266;stroke-linecap:round;stroke-linejoin:round;stroke-miterlimit:4;stroke-dasharray:none;stroke-dashoffset:17.00786781;stroke-opacity:1;paint-order:markers fill stroke"
             id="ellipse2883"
             cx="42.22192"
             cy="201.02856"
             transform="matrix(0.99895189,-0.04577258,0.043937,0.9990343,0,0)"
             rx="1.2921206"
             ry="1.3462356" />
          <ellipse
             ry="1.3462356"
             rx="1.2921206"
             transform="matrix(0.99895189,-0.04577258,0.043937,0.9990343,0,0)"
             cy="204.61433"
             cx="41.84235"
             id="ellipse2885"
             style="opacity:1;fill:#f17052;fill-opacity:1;stroke:#ba3e37;stroke-width:0.58254266;stroke-linecap:round;stroke-linejoin:round;stroke-miterlimit:4;stroke-dasharray:none;stroke-dashoffset:17.00786781;stroke-opacity:1;paint-order:markers fill stroke" />
          <ellipse
             style="opacity:1;fill:#f17052;fill-opacity:1;stroke:#ba3e37;stroke-width:0.58254266;stroke-linecap:round;stroke-linejoin:round;stroke-miterlimit:4;stroke-dasharray:none;stroke-dashoffset:17.00786781;stroke-opacity:1;paint-order:markers fill stroke"
             id="ellipse2887"
             cx="38.14156"
             cy="204.15796"
             transform="matrix(0.99895189,-0.04577258,0.043937,0.9990343,0,0)"
             rx="1.2921206"
             ry="1.3462356" />
        </g>
        <path
           sodipodi:nodetypes="assssca"
           inkscape:connector-curvature="0"
           id="path2891"
           d="m 47.006378,214.81316 c -3.52982,3.93514 -9.801898,7.31736 -11.183664,11.20826 -4.374358,12.31772 -6.360584,6.89288 -4.655604,14.49162 0.70487,3.14146 19.989597,6.31113 30.197944,-0.65609 11.15095,-7.61055 5.788396,-16.39057 4.359796,-23.78587 -1.02045,-5.28245 -6.981897,-15.82564 -6.981897,-15.82564 -16.48782,-8.02319 -7.579364,9.93315 -11.736575,14.56772 z"
           style="fill:#5f9659;fill-opacity:1;stroke:none;stroke-width:0.2568849px;stroke-linecap:butt;stroke-linejoin:miter;stroke-opacity:1" />
        <g
           id="g2903"
           transform="matrix(0.42996901,0.9308756,-0.87638071,0.42839968,199.57362,107.49586)"
           style="stroke-width:0.97090364">
          <ellipse
             ry="5.9008451"
             rx="5.4126391"
             transform="matrix(0.99895189,-0.04577259,0.04393699,0.9990343,0,0)"
             cy="202.5766"
             cx="40.086849"
             id="ellipse2893"
             style="opacity:1;fill:#f17052;fill-opacity:1;stroke:#ba3e37;stroke-width:1.06799483;stroke-linecap:round;stroke-linejoin:round;stroke-miterlimit:4;stroke-dasharray:none;stroke-dashoffset:17.00786781;stroke-opacity:1;paint-order:markers fill stroke" />
          <ellipse
             style="opacity:1;fill:#f17052;fill-opacity:1;stroke:#ba3e37;stroke-width:0.58254266;stroke-linecap:round;stroke-linejoin:round;stroke-miterlimit:4;stroke-dasharray:none;stroke-dashoffset:17.00786781;stroke-opacity:1;paint-order:markers fill stroke"
             id="ellipse2895"
             cx="38.774174"
             cy="200.507"
             transform="matrix(0.99895189,-0.04577258,0.043937,0.9990343,0,0)"
             rx="1.2921206"
             ry="1.3462356" />
          <ellipse
             ry="1.3462356"
             rx="1.2921206"
             transform="matrix(0.99895189,-0.04577258,0.043937,0.9990343,0,0)"
             cy="201.02856"
             cx="42.22192"
             id="ellipse2897"
             style="opacity:1;fill:#f17052;fill-opacity:1;stroke:#ba3e37;stroke-width:0.58254266;stroke-linecap:round;stroke-linejoin:round;stroke-miterlimit:4;stroke-dasharray:none;stroke-dashoffset:17.00786781;stroke-opacity:1;paint-order:markers fill stroke" />
          <ellipse
             style="opacity:1;fill:#f17052;fill-opacity:1;stroke:#ba3e37;stroke-width:0.58254266;stroke-linecap:round;stroke-linejoin:round;stroke-miterlimit:4;stroke-dasharray:none;stroke-dashoffset:17.00786781;stroke-opacity:1;paint-order:markers fill stroke"
             id="ellipse2899"
             cx="41.84235"
             cy="204.61433"
             transform="matrix(0.99895189,-0.04577258,0.043937,0.9990343,0,0)"
             rx="1.2921206"
             ry="1.3462356" />
          <ellipse
             ry="1.3462356"
             rx="1.2921206"
             transform="matrix(0.99895189,-0.04577258,0.043937,0.9990343,0,0)"
             cy="204.15796"
             cx="38.14156"
             id="ellipse2901"
             style="opacity:1;fill:#f17052;fill-opacity:1;stroke:#ba3e37;stroke-width:0.58254266;stroke-linecap:round;stroke-linejoin:round;stroke-miterlimit:4;stroke-dasharray:none;stroke-dashoffset:17.00786781;stroke-opacity:1;paint-order:markers fill stroke" />
        </g>
        <path
           sodipodi:nodetypes="ssccs"
           inkscape:connector-curvature="0"
           id="path2905"
           d="m 51.680264,204.37576 c -1.215238,12.80308 -24.822147,35.99416 -21.538054,36.81319 10.307323,2.5706 38.613534,-1.64394 38.613534,-1.64394 l -7.80039,-38.5683 c -3.953972,-10.15397 -9.014281,0.6513 -9.27509,3.39905 z"
           style="fill:#7e654a;fill-opacity:1;stroke:none;stroke-width:0.2568849px;stroke-linecap:butt;stroke-linejoin:miter;stroke-opacity:1" />
        <path
           style="fill:#e5dcd3;fill-opacity:1;stroke:none;stroke-width:0.2568849px;stroke-linecap:butt;stroke-linejoin:miter;stroke-opacity:1"
           d="m 52.077548,205.22954 c -1.215238,12.80308 -23.599078,35.18693 -20.239258,35.60397 11.172681,1.38683 36.659433,-2.56702 36.659433,-2.56702 l -7.542369,-37.28978 c -3.953972,-10.15397 -8.616997,1.50508 -8.877806,4.25283 z"
           id="path2907"
           inkscape:connector-curvature="0"
           sodipodi:nodetypes="ssccs" />
        <g
           style="stroke:#c4b38a;stroke-opacity:1"
           transform="translate(0.14379733,-2.9080804)"
           id="g2921">
          <g
             style="stroke:#c4b38a;stroke-width:0.44661567;stroke-miterlimit:4;stroke-dasharray:none;stroke-opacity:1"
             id="g2919">
            <g
               id="g2917">
              <path
                 transform="translate(-0.30134501,-0.67422191)"
                 sodipodi:nodetypes="ccc"
                 inkscape:connector-curvature="0"
                 id="path2909"
                 d="m 54.637071,223.52732 0.348215,1.6759 0.348221,1.67594"
                 style="fill:none;stroke:#c7b790;stroke-width:0.45147017;stroke-linecap:butt;stroke-linejoin:miter;stroke-miterlimit:4;stroke-dasharray:none;stroke-opacity:1" />
              <ellipse
                 style="opacity:1;fill:url(#linearGradient986);fill-opacity:1;stroke:none;stroke-width:0.58390117;stroke-linecap:round;stroke-linejoin:round;stroke-miterlimit:4;stroke-dasharray:none;stroke-dashoffset:17.00786781;stroke-opacity:1;paint-order:markers fill stroke"
                 id="ellipse2911"
                 cx="45.753136"
                 cy="220.01122"
                 transform="matrix(0.99835646,0.05730956,0.03911577,0.99923469,0,0)"
                 rx="3.851373"
                 ry="2.6815283" />
              <path
                 inkscape:connector-curvature="0"
                 id="path2913"
                 d="m 54.118336,221.37078 -0.224965,-0.81184"
                 style="fill:none;stroke:#c4b38a;stroke-width:0.09709036;stroke-linecap:butt;stroke-linejoin:bevel;stroke-miterlimit:4;stroke-dasharray:none;stroke-opacity:1;marker-end:url(#Arrow1Mend)" />
              <path
                 style="fill:none;stroke:#c4b38a;stroke-width:0.44661567;stroke-linecap:butt;stroke-linejoin:miter;stroke-miterlimit:4;stroke-dasharray:none;stroke-opacity:1"
                 d="m 54.03597,221.00597 0.113597,0.46937 0.215107,0.86853"
                 id="path2915"
                 inkscape:connector-curvature="0"
                 sodipodi:nodetypes="ccc" />
            </g>
          </g>
        </g>
      </g>
    </g>
  </g>
  <g
     inkscape:label="Layer 2"
     id="layer2"
     inkscape:groupmode="layer" />
</svg>
