<?xml version="1.0" encoding="UTF-8" standalone="no"?>
<svg
   xmlns:dc="http://purl.org/dc/elements/1.1/"
   xmlns:cc="http://creativecommons.org/ns#"
   xmlns:rdf="http://www.w3.org/1999/02/22-rdf-syntax-ns#"
   xmlns:svg="http://www.w3.org/2000/svg"
   xmlns="http://www.w3.org/2000/svg"
   xmlns:sodipodi="http://sodipodi.sourceforge.net/DTD/sodipodi-0.dtd"
   xmlns:inkscape="http://www.inkscape.org/namespaces/inkscape"
   sodipodi:docname="deathrun.svg"
   inkscape:version="1.0 (4035a4fb49, 2020-05-01)"
   inkscape:export-ydpi="96"
   inkscape:export-xdpi="96"
   inkscape:export-filename="C:\Users\Tony\Documents\SVG Images\PNG Copies\deathrun_testimage_01.png"
   id="svg8"
   version="1.1"
   viewBox="0 0 237.06666 135.46667"
   height="512"
   width="896">
  <defs
     id="defs2">
    <filter
       inkscape:menu-tooltip="Sharpen edges and boundaries within the object, force=0.15"
       inkscape:menu="Image Effects"
       id="filter954"
       inkscape:label="Sharpen"
       style="color-interpolation-filters:sRGB;">
      <feFlood
         id="feFlood948"
         result="flood"
         flood-color="rgb(240,121,52)"
         flood-opacity="1" />
      <feComposite
         id="feComposite950"
         result="composite"
         operator="in"
         in2="SourceGraphic"
         in="flood" />
      <feGaussianBlur
         result="fbSourceGraphic"
         id="feGaussianBlur952"
         stdDeviation="0.01" />
      <feColorMatrix
         id="feColorMatrix956"
         values="0 0 0 -1 0 0 0 0 -1 0 0 0 0 -1 0 0 0 0 1 0"
         in="fbSourceGraphic"
         result="fbSourceGraphicAlpha" />
      <feFlood
         in="fbSourceGraphic"
         result="flood"
         flood-color="rgb(240,121,52)"
         flood-opacity="1"
         id="feFlood958" />
      <feComposite
         result="composite"
         operator="in"
         in="flood"
         id="feComposite960"
         in2="fbSourceGraphic" />
      <feGaussianBlur
         result="fbSourceGraphic"
         stdDeviation="0.01"
         id="feGaussianBlur962" />
      <feColorMatrix
         id="feColorMatrix964"
         values="0 0 0 -1 0 0 0 0 -1 0 0 0 0 -1 0 0 0 0 1 0"
         in="fbSourceGraphic"
         result="fbSourceGraphicAlpha" />
      <feFlood
         in="fbSourceGraphic"
         result="flood"
         flood-color="rgb(240,121,52)"
         flood-opacity="1"
         id="feFlood966" />
      <feComposite
         result="composite"
         operator="in"
         in="flood"
         id="feComposite968"
         in2="fbSourceGraphic" />
      <feGaussianBlur
         result="fbSourceGraphic"
         stdDeviation="0.01"
         id="feGaussianBlur970" />
      <feColorMatrix
         id="feColorMatrix1082"
         values="0 0 0 -1 0 0 0 0 -1 0 0 0 0 -1 0 0 0 0 1 0"
         in="fbSourceGraphic"
         result="fbSourceGraphicAlpha" />
      <feConvolveMatrix
         targetY="1"
         targetX="1"
         in="fbSourceGraphic"
         divisor="1"
         kernelMatrix="0 -0.15 0 -0.15 1.6 -0.15 0 -0.15 0"
         order="3 3"
         id="feConvolveMatrix1084" />
    </filter>
    <filter
       id="filter954-5"
       inkscape:label="Silhouette"
       style="color-interpolation-filters:sRGB">
      <feFlood
         id="feFlood948-7"
         result="flood"
         flood-color="rgb(240,121,52)"
         flood-opacity="1" />
      <feComposite
         id="feComposite950-5"
         result="composite"
         operator="in"
         in2="SourceGraphic"
         in="flood" />
      <feGaussianBlur
         result="fbSourceGraphic"
         id="feGaussianBlur952-8"
         stdDeviation="0.01" />
      <feColorMatrix
         id="feColorMatrix956-8"
         values="0 0 0 -1 0 0 0 0 -1 0 0 0 0 -1 0 0 0 0 1 0"
         in="fbSourceGraphic"
         result="fbSourceGraphicAlpha" />
      <feFlood
         in="fbSourceGraphic"
         result="flood"
         flood-color="rgb(240,121,52)"
         flood-opacity="1"
         id="feFlood958-4" />
      <feComposite
         result="composite"
         operator="in"
         in="flood"
         id="feComposite960-9"
         in2="fbSourceGraphic" />
      <feGaussianBlur
         result="fbSourceGraphic"
         stdDeviation="0.01"
         id="feGaussianBlur962-4" />
      <feColorMatrix
         id="feColorMatrix964-7"
         values="0 0 0 -1 0 0 0 0 -1 0 0 0 0 -1 0 0 0 0 1 0"
         in="fbSourceGraphic"
         result="fbSourceGraphicAlpha" />
      <feFlood
         in="fbSourceGraphic"
         result="flood"
         flood-color="rgb(240,121,52)"
         flood-opacity="1"
         id="feFlood966-2" />
      <feComposite
         result="composite"
         operator="in"
         in="flood"
         id="feComposite968-0"
         in2="fbSourceGraphic" />
      <feGaussianBlur
         stdDeviation="0.01"
         id="feGaussianBlur970-4" />
    </filter>
    <filter
       id="filter954-2"
       inkscape:label="Silhouette"
       style="color-interpolation-filters:sRGB">
      <feFlood
         id="feFlood948-2"
         result="flood"
         flood-color="rgb(240,121,52)"
         flood-opacity="1" />
      <feComposite
         id="feComposite950-0"
         result="composite"
         operator="in"
         in2="SourceGraphic"
         in="flood" />
      <feGaussianBlur
         result="fbSourceGraphic"
         id="feGaussianBlur952-82"
         stdDeviation="0.01" />
      <feColorMatrix
         id="feColorMatrix956-9"
         values="0 0 0 -1 0 0 0 0 -1 0 0 0 0 -1 0 0 0 0 1 0"
         in="fbSourceGraphic"
         result="fbSourceGraphicAlpha" />
      <feFlood
         in="fbSourceGraphic"
         result="flood"
         flood-color="rgb(240,121,52)"
         flood-opacity="1"
         id="feFlood958-8" />
      <feComposite
         result="composite"
         operator="in"
         in="flood"
         id="feComposite960-8"
         in2="fbSourceGraphic" />
      <feGaussianBlur
         result="fbSourceGraphic"
         stdDeviation="0.01"
         id="feGaussianBlur962-9" />
      <feColorMatrix
         id="feColorMatrix964-76"
         values="0 0 0 -1 0 0 0 0 -1 0 0 0 0 -1 0 0 0 0 1 0"
         in="fbSourceGraphic"
         result="fbSourceGraphicAlpha" />
      <feFlood
         in="fbSourceGraphic"
         result="flood"
         flood-color="rgb(240,121,52)"
         flood-opacity="1"
         id="feFlood966-9" />
      <feComposite
         result="composite"
         operator="in"
         in="flood"
         id="feComposite968-4"
         in2="fbSourceGraphic" />
      <feGaussianBlur
         stdDeviation="0.01"
         id="feGaussianBlur970-3" />
    </filter>
    <filter
       inkscape:menu-tooltip="Sharpen edges and boundaries within the object, force=0.15"
       inkscape:menu="Image Effects"
       id="filter954-1"
       inkscape:label="Sharpen"
       style="color-interpolation-filters:sRGB">
      <feFlood
         id="feFlood948-6"
         result="flood"
         flood-color="rgb(240,121,52)"
         flood-opacity="1" />
      <feComposite
         id="feComposite950-51"
         result="composite"
         operator="in"
         in2="SourceGraphic"
         in="flood" />
      <feGaussianBlur
         result="fbSourceGraphic"
         id="feGaussianBlur952-3"
         stdDeviation="0.01" />
      <feColorMatrix
         id="feColorMatrix956-6"
         values="0 0 0 -1 0 0 0 0 -1 0 0 0 0 -1 0 0 0 0 1 0"
         in="fbSourceGraphic"
         result="fbSourceGraphicAlpha" />
      <feFlood
         in="fbSourceGraphic"
         result="flood"
         flood-color="rgb(240,121,52)"
         flood-opacity="1"
         id="feFlood958-2" />
      <feComposite
         result="composite"
         operator="in"
         in="flood"
         id="feComposite960-6"
         in2="fbSourceGraphic" />
      <feGaussianBlur
         result="fbSourceGraphic"
         stdDeviation="0.01"
         id="feGaussianBlur962-1" />
      <feColorMatrix
         id="feColorMatrix964-5"
         values="0 0 0 -1 0 0 0 0 -1 0 0 0 0 -1 0 0 0 0 1 0"
         in="fbSourceGraphic"
         result="fbSourceGraphicAlpha" />
      <feFlood
         in="fbSourceGraphic"
         result="flood"
         flood-color="rgb(240,121,52)"
         flood-opacity="1"
         id="feFlood966-3" />
      <feComposite
         result="composite"
         operator="in"
         in="flood"
         id="feComposite968-49"
         in2="fbSourceGraphic" />
      <feGaussianBlur
         result="fbSourceGraphic"
         stdDeviation="0.01"
         id="feGaussianBlur970-45" />
      <feColorMatrix
         id="feColorMatrix1082-8"
         values="0 0 0 -1 0 0 0 0 -1 0 0 0 0 -1 0 0 0 0 1 0"
         in="fbSourceGraphic"
         result="fbSourceGraphicAlpha" />
      <feConvolveMatrix
         targetY="1"
         targetX="1"
         in="fbSourceGraphic"
         divisor="1"
         kernelMatrix="0 -0.15 0 -0.15 1.6 -0.15 0 -0.15 0"
         order="3 3"
         id="feConvolveMatrix1084-4" />
    </filter>
    <filter
       inkscape:menu-tooltip="Sharpen edges and boundaries within the object, force=0.15"
       inkscape:menu="Image Effects"
       id="filter954-0"
       inkscape:label="Sharpen"
       style="color-interpolation-filters:sRGB">
      <feFlood
         id="feFlood948-3"
         result="flood"
         flood-color="rgb(240,121,52)"
         flood-opacity="1" />
      <feComposite
         id="feComposite950-4"
         result="composite"
         operator="in"
         in2="SourceGraphic"
         in="flood" />
      <feGaussianBlur
         result="fbSourceGraphic"
         id="feGaussianBlur952-5"
         stdDeviation="0.01" />
      <feColorMatrix
         id="feColorMatrix956-3"
         values="0 0 0 -1 0 0 0 0 -1 0 0 0 0 -1 0 0 0 0 1 0"
         in="fbSourceGraphic"
         result="fbSourceGraphicAlpha" />
      <feFlood
         in="fbSourceGraphic"
         result="flood"
         flood-color="rgb(240,121,52)"
         flood-opacity="1"
         id="feFlood958-82" />
      <feComposite
         result="composite"
         operator="in"
         in="flood"
         id="feComposite960-5"
         in2="fbSourceGraphic" />
      <feGaussianBlur
         result="fbSourceGraphic"
         stdDeviation="0.01"
         id="feGaussianBlur962-6" />
      <feColorMatrix
         id="feColorMatrix964-1"
         values="0 0 0 -1 0 0 0 0 -1 0 0 0 0 -1 0 0 0 0 1 0"
         in="fbSourceGraphic"
         result="fbSourceGraphicAlpha" />
      <feFlood
         in="fbSourceGraphic"
         result="flood"
         flood-color="rgb(240,121,52)"
         flood-opacity="1"
         id="feFlood966-27" />
      <feComposite
         result="composite"
         operator="in"
         in="flood"
         id="feComposite968-8"
         in2="fbSourceGraphic" />
      <feGaussianBlur
         result="fbSourceGraphic"
         stdDeviation="0.01"
         id="feGaussianBlur970-7" />
      <feColorMatrix
         id="feColorMatrix1082-81"
         values="0 0 0 -1 0 0 0 0 -1 0 0 0 0 -1 0 0 0 0 1 0"
         in="fbSourceGraphic"
         result="fbSourceGraphicAlpha" />
      <feConvolveMatrix
         targetY="1"
         targetX="1"
         in="fbSourceGraphic"
         divisor="1"
         kernelMatrix="0 -0.15 0 -0.15 1.6 -0.15 0 -0.15 0"
         order="3 3"
         id="feConvolveMatrix1084-1" />
    </filter>
  </defs>
  <sodipodi:namedview
     showborder="true"
     inkscape:document-rotation="0"
     inkscape:window-maximized="1"
     inkscape:window-y="-8"
     inkscape:window-x="-8"
     inkscape:window-height="1027"
     inkscape:window-width="1920"
     inkscape:showpageshadow="false"
     borderlayer="true"
     inkscape:pagecheckerboard="true"
     units="px"
     showgrid="false"
     inkscape:current-layer="layer4"
     inkscape:document-units="mm"
     inkscape:cy="242.70942"
     inkscape:cx="422.08385"
     inkscape:zoom="0.98994949"
     inkscape:pageshadow="2"
     inkscape:pageopacity="0"
     borderopacity="1"
     bordercolor="#000000"
     pagecolor="#707070"
     id="base" />
  <metadata
     id="metadata5">
    <rdf:RDF>
      <cc:Work
         rdf:about="">
        <dc:format>image/svg+xml</dc:format>
        <dc:type
           rdf:resource="http://purl.org/dc/dcmitype/StillImage" />
        <dc:title></dc:title>
      </cc:Work>
    </rdf:RDF>
  </metadata>
  <g
     style="display:none"
     inkscape:label="Background"
     id="layer2"
     inkscape:groupmode="layer">
    <rect
       inkscape:export-ydpi="96"
       inkscape:export-xdpi="96"
       y="-4.9804864"
       x="-4.5406013"
       height="143.65437"
       width="245.61771"
       id="rect834"
       style="opacity:1;fill:#3d3d3d;fill-opacity:1;stroke:none;stroke-width:0.71958268;stroke-miterlimit:4;stroke-dasharray:none;stroke-opacity:1" />
  </g>
  <g
     inkscape:label="Colour Pallet"
     id="layer4"
     inkscape:groupmode="layer" />
  <g
     inkscape:label="Heavy"
     id="layer5"
     inkscape:groupmode="layer">
    <path
       inkscape:connector-curvature="0"
       id="path1337-3"
       d="m 195.53056,53.465026 3.32417,1.018966 1.5368,1.469982 0.81851,1.687137 0.30068,1.820775 -0.43431,0.367496 -0.0501,0.626412 0.32574,0.359145 -0.0306,1.457624 -0.35435,0.389789 -0.72052,-0.248046 -0.0236,0.826822 0.36616,0.401598 -0.0118,0.53153 6.70908,-5.646018 c 0,0 -0.34254,-1.393788 -0.24805,-1.630024 0.0945,-0.236233 0.99219,-2.882066 0.99219,-3.000184 0,-0.118118 -0.11811,-0.87407 -0.11811,-1.063059 0,-0.188989 0.44884,-2.811198 0.42522,-2.929316 -0.0236,-0.118118 -0.44885,-0.779576 -0.44885,-0.779576 l 0.0709,-4.323102 2.65492,-3.348376 1.70384,-1.653731 0.60136,0.01669 1.18601,1.135894 2.03793,-1.236121 1.40316,1.586913 -0.33408,1.386462 0.61806,-0.317383 0.35079,0.451017 c 0,0 1.60362,-0.668175 1.70384,-0.618063 0.10023,0.05011 0.55124,0.968855 0.55124,0.968855 l 0.1497,0.741944 c 0,0 1.27567,-0.507904 1.35835,-0.53153 0.0827,-0.02363 0.82682,0.0118 0.82682,0.0118 0,0 0.76777,1.370163 0.74414,1.41741 -0.0236,0.04725 -0.49609,0.909505 -0.49609,0.909505 l 0.67327,0.944941 -0.64965,1.370164 0.53153,0.54334 0.0354,0.614211 -0.8349,0.960616 c 0,0 -1.00226,0.334087 -1.06907,0.451019 -0.0668,0.11693 -0.41761,0.618059 -0.3508,0.751695 0.0668,0.133636 0.10023,1.219417 0.10023,1.219417 0,0 -0.15034,1.102487 -0.15034,1.202714 0,0.100224 -1.35305,2.271789 -1.35305,2.271789 l 0.0501,1.135896 -0.80181,1.837478 c 0,0 -0.63476,1.65373 -0.61806,1.77066 0.0167,0.11693 -0.0501,0.868627 -0.0501,0.868627 0,0 -0.20045,0.300678 -0.28397,0.250566 -0.0835,-0.05011 -0.18375,-0.100227 -0.18375,-0.100227 l -3.04163,7.081761 -2.90569,5.575149 c 0,0 -6.14211,3.260042 -6.47284,3.354538 -0.33073,0.09449 -6.66183,1.984375 -6.66183,1.984375 l -6.75631,-2.17334 -3.92884,-3.010226 -0.34243,0.46772 0.81852,-0.01669 c 0,0 0.53454,0.634765 0.53454,0.676526 0,0.04176 0,0.509482 0,0.509482 l -2.16322,1.194361 1.7122,-0.08352 c 0,0 0.34244,0.601355 0.34244,0.64312 0,0.04176 -0.12529,0.451014 -0.12529,0.451014 0,0 -0.64311,0.242213 -0.64311,0.317381 0,0.07517 0.008,0.367496 0.008,0.367496 l -0.59533,0.550407 -0.24804,0.614212 -0.87407,0.862258 -0.3898,1.181177 -0.23622,0.177176 c 0,0 -0.10373,0.239614 -0.13715,0.339841 -0.0334,0.100224 -0.48442,0.400902 -0.48442,0.400902 l 0.0668,0.53454 -0.4009,0.551244 0.0334,0.484428 -0.21716,0.183745 0.0501,0.367496 -0.16703,0.150339 -0.0835,0.701582 -0.23386,0.150339 0.0835,0.534543 -0.16704,0.11693 0.0167,0.417605 -0.18375,0.01669 0.0501,0.952151 -0.20046,0.06681 -0.26727,1.804069 c 0,0 -0.71828,-0.08352 -0.70158,-0.01669 0.0167,0.06682 0.0334,0.751695 0.0334,0.751695 l -1.60361,0.03341 c 0,0 0.15033,0.467723 0.0501,0.467723 -0.10023,0 -1.57021,0.0167 -1.57021,0.0167 l -1.1693,3.808592 -0.53454,0.06682 -0.60136,1.77066 6.64833,4.2429 c 0,0 0.0252,2.21616 0.11967,2.78312 0.0945,0.56696 0.28349,2.31511 0.28349,2.31511 l 2.59858,5.14992 0.0236,1.74814 c 0,0 0.82682,1.86626 0.73233,1.88988 -0.0945,0.0236 -3.63802,2.05525 -3.63802,2.05525 l 0.24782,2.86766 0.66817,1.70385 3.57473,1.40316 h 0.60136 l 2.07134,-1.70384 0.90203,-0.80181 1.06908,0.20046 c 0,0 1.06908,0.40089 1.1693,0.53454 0.10023,0.13362 0.66818,1.26952 0.66818,1.26952 0,0 0.70158,0.50113 0.56795,0.63476 -0.13364,0.13365 -2.40543,2.63929 -2.40543,2.63929 l -5.41221,1.93771 -0.0334,0.46772 c 0,0 -5.01131,2.07133 -5.17835,2.10474 -0.16705,0.0334 -1.77066,0.40091 -1.77066,0.40091 l -0.63477,-1.9043 0.33409,-0.23386 c 0,0 -0.26727,-0.10022 -0.30068,-1.00226 -0.0334,-0.90203 0.0668,-3.44108 0.0334,-3.80859 -0.0334,-0.36749 -2.40543,-6.14719 -2.60589,-6.38105 -0.20044,-0.23386 -1.10249,-0.60137 -1.10249,-0.73499 0,-0.13363 0.0334,-1.00226 0.0334,-1.00226 0,0 -1.00226,-0.63477 -1.00226,-1.00226 0,-0.36749 -0.53454,-6.41447 -0.53454,-6.41447 0,0 -0.008,-0.56498 0.12192,-0.83665 0.12994,-0.27167 1.77178,-2.18518 1.53553,-2.22061 -0.23623,-0.0354 -4.72469,0.18899 -4.72469,0.18899 l -2.84663,7.46504 -11.24481,4.58294 -1.01581,-0.44885 -1.84263,0.73233 c 0,0 -1.77176,-3.68526 -2.12612,-3.66163 -0.35435,0.0236 -2.69308,0.11812 -3.07105,0.23623 -0.37798,0.11812 -3.44904,0.94495 -3.44904,0.94495 0,0 -2.12611,2.74031 -2.33872,2.95293 -0.21262,0.21261 -1.18118,1.41741 -1.18118,1.41741 l -0.21259,4.74832 c 0,0 -0.63784,0.59059 -0.96857,0.63784 -0.33073,0.0472 -1.77176,0.0709 -1.77176,0.0709 0,0 -1.01581,-0.73233 -1.03944,-1.06306 -0.0236,-0.33073 -0.3071,-3.73252 -0.14174,-4.63021 0.16537,-0.89769 0.8032,-3.7325 0.8032,-3.7325 0,0 1.7009,-2.69308 1.48828,-2.69308 -0.21261,0 -1.27567,-0.0473 -1.27567,-0.0473 l 0.42287,-3.42459 c 0,0 0.80181,-2.65599 0.88533,-2.65599 0.0835,0 1.00226,-0.0501 1.00226,-0.0501 0,0 0.73499,-0.0167 0.93544,0.15034 0.20045,0.16704 0.31739,0.50112 0.31739,0.50112 l 1.43657,0.28398 c 0,0 0.55124,1.08578 0.61806,1.08578 0.0668,0 1.60362,0.10023 1.75396,0.0334 0.15033,-0.0668 5.72958,-0.98556 5.72958,-0.98556 l 1.45328,-2.50565 c 0,0 4.15939,0.51784 4.35984,0.56795 0.20045,0.0501 4.12597,-0.0334 4.12597,-0.0334 0,0 0.58465,0.90204 0.51784,0.66817 -0.0668,-0.23386 -1.38646,-5.56254 -1.38646,-5.56254 0,0 -0.58003,-1.16032 -0.72178,-2.128888 -0.14174,-0.968566 -0.49609,-3.992375 -0.47247,-4.464844 0.0236,-0.472472 0.18899,-1.748142 0.18899,-1.748142 l -0.54334,-0.28348 0.57974,-2.708545 -2.25701,-3.209147 c 0,0 0.0827,-1.547339 0.0354,-1.630021 -0.0473,-0.08268 -0.57878,-0.992187 -0.57878,-0.992187 l 2.36235,-7.783947 c 0,0 -0.68508,-0.566965 -0.61421,-0.661458 0.0709,-0.0945 1.15755,-1.252048 1.15755,-1.252048 l -0.85044,-2.031622 1.32291,-0.944941 c 0,0 -0.66146,-1.748139 -0.54334,-1.748139 0.11812,0 0.99219,-0.661458 0.99219,-0.661458 l -0.3071,-1.630021 1.41741,-0.755955 -0.56697,-1.677267 1.84264,-0.968566 -0.21262,-2.031622 c 0,0 1.91351,-0.519715 1.91351,-0.661458 0,-0.14174 0.18898,-1.913504 0.18898,-1.913504 0,0 1.61309,-0.04065 1.61309,-0.307916 0,-0.267269 0.33409,-1.703843 0.33409,-1.703843 0,0 2.03793,-0.167045 2.03793,-0.30068 0,-0.133633 0.33408,-1.46998 0.33408,-1.46998 l 2.00453,-0.06682 0.4009,-1.770661 2.10475,0.23386 1.23612,-1.77066 c 0,0 2.10475,0.835218 2.37202,0.601355 0.26727,-0.23386 0.60135,-0.935442 0.86862,-0.902033 0.26727,0.03341 2.40543,1.202711 2.47225,1.069078 0.0668,-0.133636 0.53454,-0.734991 0.53454,-0.734991 l 2.57247,1.169305 0.16704,0.534537 0.60136,-0.133633 1.97111,0.601356 0.83522,0.835218 v 0.935442 l 1.43657,0.835218 0.593,0.0084 0.88533,-1.611968 c 0,0 1.13057,-1.354014 1.21325,-1.401263 0.0827,-0.04725 0.99219,-0.437033 0.99219,-0.437033 z"
       style="opacity:1;fill:#9d302f;fill-opacity:1;stroke:#3d3d3d;stroke-width:0.30000001;stroke-linecap:butt;stroke-linejoin:miter;stroke-miterlimit:4;stroke-dasharray:none;stroke-opacity:1" />
    <path
       inkscape:connector-curvature="0"
       id="path1337"
       d="m 200.82227,50.290034 3.32417,1.018966 1.5368,1.469982 0.81851,1.687137 0.30068,1.820775 -0.43431,0.367496 -0.0501,0.626412 0.32574,0.359145 -0.0306,1.457624 -0.35435,0.389789 -0.72052,-0.248046 -0.0236,0.826822 0.36616,0.401598 -0.0118,0.53153 6.70908,-5.646018 c 0,0 -0.34254,-1.393788 -0.24805,-1.630024 0.0945,-0.236233 0.99219,-2.882066 0.99219,-3.000184 0,-0.118118 -0.11811,-0.87407 -0.11811,-1.063059 0,-0.188989 0.44884,-2.811198 0.42522,-2.929316 -0.0236,-0.118118 -0.44885,-0.779576 -0.44885,-0.779576 l 0.0709,-4.323101 2.65492,-3.348376 1.70384,-1.653731 0.60136,0.01669 1.18601,1.135894 2.03793,-1.236121 1.40316,1.586913 -0.33408,1.386462 0.61806,-0.317384 0.35079,0.451017 c 0,0 1.60362,-0.668174 1.70384,-0.618062 0.10023,0.05011 0.55124,0.968854 0.55124,0.968854 l 0.1497,0.741945 c 0,0 1.27567,-0.507905 1.35835,-0.53153 0.0827,-0.02363 0.82682,0.0118 0.82682,0.0118 0,0 0.76777,1.370163 0.74414,1.41741 -0.0236,0.04725 -0.49609,0.909505 -0.49609,0.909505 l 0.67327,0.944941 -0.64965,1.370163 0.53153,0.543341 0.0354,0.614211 -0.8349,0.960615 c 0,0 -1.00226,0.334087 -1.06907,0.451019 -0.0668,0.11693 -0.41761,0.618059 -0.3508,0.751695 0.0668,0.133636 0.10023,1.219417 0.10023,1.219417 0,0 -0.15034,1.102487 -0.15034,1.202714 0,0.100224 -1.35305,2.271789 -1.35305,2.271789 l 0.0501,1.135896 -0.80181,1.837478 c 0,0 -0.63476,1.65373 -0.61806,1.77066 0.0167,0.11693 -0.0501,0.868627 -0.0501,0.868627 0,0 -0.20045,0.300678 -0.28397,0.250566 -0.0835,-0.05011 -0.18375,-0.100227 -0.18375,-0.100227 l -3.04163,7.081761 -2.90569,5.575149 c 0,0 -6.14211,3.260042 -6.47284,3.354538 -0.33073,0.09449 -6.66183,1.984375 -6.66183,1.984375 l -6.75631,-2.17334 -3.92883,-3.010225 -0.34244,0.467719 0.81852,-0.01669 c 0,0 0.53454,0.634765 0.53454,0.676527 0,0.04176 0,0.509481 0,0.509481 l -2.16322,1.194361 1.7122,-0.08352 c 0,0 0.34244,0.601356 0.34244,0.643118 0,0.04176 -0.12529,0.451016 -0.12529,0.451016 0,0 -0.64311,0.242213 -0.64311,0.317381 0,0.07517 0.008,0.367496 0.008,0.367496 l -0.59532,0.550407 -0.24805,0.614212 -0.87407,0.862258 -0.38979,1.181175 -0.23623,0.177178 c 0,0 -0.10373,0.239614 -0.13714,0.339841 -0.0334,0.100224 -0.48442,0.400902 -0.48442,0.400902 l 0.0668,0.53454 -0.4009,0.551244 0.0334,0.484426 -0.21716,0.183747 0.0501,0.367496 -0.16704,0.150339 -0.0835,0.701582 -0.23386,0.150339 0.0835,0.534541 -0.16704,0.11693 0.0167,0.417607 -0.18375,0.01669 0.0501,0.952149 -0.20046,0.06681 -0.26727,1.804069 c 0,0 -0.71828,-0.08352 -0.70158,-0.01669 0.0167,0.06682 0.0334,0.751694 0.0334,0.751694 l -1.60361,0.03341 c 0,0 0.15033,0.467723 0.0501,0.467723 -0.10023,0 -1.57021,0.01669 -1.57021,0.01669 l -1.1693,3.808592 -0.53454,0.06682 -0.60136,1.770661 6.64833,4.242896 c 0,0 0.0252,2.216148 0.11967,2.783108 0.0945,0.56696 0.28349,2.31511 0.28349,2.31511 l 2.59858,5.14992 0.0236,1.74814 c 0,0 0.82682,1.86626 0.73233,1.88988 -0.0945,0.0236 -3.63802,2.05525 -3.63802,2.05525 l 0.24782,2.86767 0.66817,1.70385 3.57473,1.40316 h 0.60136 l 2.07134,-1.70384 0.90203,-0.80181 1.06908,0.20045 c 0,0 1.06908,0.4009 1.1693,0.53454 0.10023,0.13363 0.66818,1.26953 0.66818,1.26953 0,0 0.70158,0.50113 0.56795,0.63476 -0.13364,0.13364 -2.40543,2.63929 -2.40543,2.63929 l -5.41221,1.93771 -0.0334,0.46772 c 0,0 -5.01131,2.07133 -5.17835,2.10474 -0.16705,0.0334 -1.77066,0.40091 -1.77066,0.40091 l -0.63477,-1.9043 0.33409,-0.23386 c 0,0 -0.26727,-0.10023 -0.30068,-1.00226 -0.0334,-0.90203 0.0668,-3.44109 0.0334,-3.80859 -0.0334,-0.36749 -2.40543,-6.1472 -2.60588,-6.38106 -0.20045,-0.23386 -1.10249,-0.60136 -1.10249,-0.73499 0,-0.13363 0.0334,-1.00226 0.0334,-1.00226 0,0 -1.00226,-0.63477 -1.00226,-1.00226 0,-0.3675 -0.53454,-6.41447 -0.53454,-6.41447 0,0 -0.008,-0.56498 0.12192,-0.83665 0.12993,-0.27167 1.77177,-2.18518 1.53553,-2.22061 -0.23623,-0.0354 -4.7247,0.18899 -4.7247,0.18899 l -2.84663,7.46503 -11.2448,4.58296 -1.01581,-0.44885 -1.84263,0.73233 c 0,0 -1.77176,-3.68527 -2.12612,-3.66164 -0.35435,0.0236 -2.69308,0.11812 -3.07105,0.23623 -0.37798,0.11812 -3.44904,0.94494 -3.44904,0.94494 0,0 -2.12611,2.74033 -2.33872,2.95294 -0.21262,0.21262 -1.18118,1.41742 -1.18118,1.41742 l -0.21261,4.74832 c 0,0 -0.63784,0.59059 -0.96857,0.63784 -0.33073,0.0472 -1.77176,0.0709 -1.77176,0.0709 0,0 -1.01581,-0.73233 -1.03944,-1.06306 -0.0236,-0.33073 -0.3071,-3.73252 -0.14174,-4.63021 0.16537,-0.89769 0.8032,-3.73251 0.8032,-3.73251 0,0 1.7009,-2.69308 1.48828,-2.69308 -0.21261,0 -1.27567,-0.0473 -1.27567,-0.0473 l 0.42287,-3.42459 c 0,0 0.80181,-2.65599 0.88533,-2.65599 0.0835,0 1.00226,-0.0501 1.00226,-0.0501 0,0 0.73499,-0.0167 0.93544,0.15034 0.20045,0.16704 0.31739,0.50112 0.31739,0.50112 l 1.43657,0.28398 c 0,0 0.55124,1.08578 0.61806,1.08578 0.0668,0 1.60362,0.10023 1.75396,0.0334 0.15033,-0.0668 5.72958,-0.98556 5.72958,-0.98556 l 1.45328,-2.50565 c 0,0 4.15939,0.51784 4.35984,0.56795 0.20045,0.0501 4.12597,-0.0334 4.12597,-0.0334 0,0 0.58465,0.90204 0.51784,0.66817 -0.0668,-0.23386 -1.38646,-5.562528 -1.38646,-5.562528 0,0 -0.58003,-1.160324 -0.72178,-2.128883 -0.14174,-0.968565 -0.49609,-3.992374 -0.47247,-4.464843 0.0236,-0.472472 0.18899,-1.748142 0.18899,-1.748142 l -0.54334,-0.28348 0.57974,-2.708545 -2.25701,-3.209147 c 0,0 0.0827,-1.547339 0.0354,-1.630021 -0.0473,-0.08268 -0.57878,-0.992188 -0.57878,-0.992188 l 2.36235,-7.783946 c 0,0 -0.68508,-0.566965 -0.61421,-0.661458 0.0709,-0.0945 1.15755,-1.252048 1.15755,-1.252048 l -0.85044,-2.031622 1.32291,-0.944941 c 0,0 -0.66146,-1.748139 -0.54334,-1.748139 0.11812,0 0.99219,-0.661458 0.99219,-0.661458 l -0.3071,-1.630021 1.41741,-0.755955 -0.56697,-1.677267 1.84264,-0.968566 -0.21262,-2.031622 c 0,0 1.91351,-0.519715 1.91351,-0.661458 0,-0.14174 0.18898,-1.913504 0.18898,-1.913504 0,0 1.61309,-0.04065 1.61309,-0.307916 0,-0.267269 0.33409,-1.703843 0.33409,-1.703843 0,0 2.03793,-0.167045 2.03793,-0.30068 0,-0.133633 0.33408,-1.46998 0.33408,-1.46998 l 2.00453,-0.06682 0.4009,-1.770661 2.10475,0.23386 1.23612,-1.77066 c 0,0 2.10475,0.835218 2.37202,0.601355 0.26727,-0.23386 0.60135,-0.935442 0.86862,-0.902033 0.26727,0.03341 2.40543,1.202711 2.47225,1.069078 0.0668,-0.133636 0.53454,-0.734991 0.53454,-0.734991 l 2.57247,1.169305 0.16704,0.534537 0.60136,-0.133633 1.97111,0.601356 0.83522,0.835218 v 0.935442 l 1.43657,0.835218 0.593,0.0084 0.88533,-1.611968 c 0,0 1.13057,-1.354014 1.21325,-1.401263 0.0827,-0.04725 0.99219,-0.437033 0.99219,-0.437033 z"
       style="opacity:1;fill:#bd3a3a;fill-opacity:1;stroke:#3d3d3d;stroke-width:0.30000001;stroke-linecap:butt;stroke-linejoin:miter;stroke-miterlimit:4;stroke-dasharray:none;stroke-opacity:1" />
    <path
       inkscape:connector-curvature="0"
       id="path1337-4"
       d="m 206.11396,48.702524 3.32417,1.018966 1.5368,1.469982 0.81851,1.687137 0.30068,1.820775 -0.43431,0.367496 -0.0501,0.626412 0.32574,0.359145 -0.0306,1.457624 -0.35435,0.389789 -0.72052,-0.248046 -0.0236,0.826822 0.36616,0.401598 -0.0118,0.53153 6.70908,-5.646018 c 0,0 -0.34254,-1.393788 -0.24805,-1.630024 0.0945,-0.236233 0.99219,-2.882066 0.99219,-3.000184 0,-0.118118 -0.11811,-0.87407 -0.11811,-1.063059 0,-0.188989 0.44884,-2.811198 0.42522,-2.929316 -0.0236,-0.118118 -0.44885,-0.779576 -0.44885,-0.779576 l 0.0709,-4.323101 2.65492,-3.348376 1.70384,-1.653731 0.60136,0.01669 1.18601,1.135894 2.03793,-1.236121 1.40316,1.586913 -0.33408,1.386462 0.61806,-0.317384 0.35079,0.451017 c 0,0 1.60362,-0.668174 1.70384,-0.618062 0.10023,0.05011 0.55124,0.968854 0.55124,0.968854 l 0.1497,0.741945 c 0,0 1.27567,-0.507905 1.35835,-0.53153 0.0827,-0.02363 0.82682,0.0118 0.82682,0.0118 0,0 0.76777,1.370163 0.74414,1.41741 -0.0236,0.04725 -0.49609,0.909505 -0.49609,0.909505 l 0.67327,0.944941 -0.64965,1.370163 0.53153,0.543341 0.0354,0.614211 -0.8349,0.960615 c 0,0 -1.00226,0.334087 -1.06907,0.451019 -0.0668,0.11693 -0.41761,0.618059 -0.3508,0.751695 0.0668,0.133636 0.10023,1.219417 0.10023,1.219417 0,0 -0.15034,1.102487 -0.15034,1.202714 0,0.100224 -1.35305,2.271789 -1.35305,2.271789 l 0.0501,1.135896 -0.80181,1.837478 c 0,0 -0.63476,1.65373 -0.61806,1.77066 0.0167,0.11693 -0.0501,0.868627 -0.0501,0.868627 0,0 -0.20045,0.300678 -0.28398,0.250566 -0.0835,-0.05011 -0.18375,-0.100227 -0.18375,-0.100227 l -3.04162,7.081761 -2.9057,5.575149 c 0,0 -6.1421,3.260042 -6.47283,3.354538 -0.33074,0.09449 -6.66183,1.984375 -6.66183,1.984375 l -6.75631,-2.17334 -3.92884,-3.010226 -0.34244,0.46772 0.81852,-0.01669 c 0,0 0.53454,0.634765 0.53454,0.676526 0,0.04176 0,0.509482 0,0.509482 l -2.16322,1.194361 1.71221,-0.08352 c 0,0 0.34244,0.601355 0.34244,0.64312 0,0.04176 -0.1253,0.451014 -0.1253,0.451014 0,0 -0.64311,0.242213 -0.64311,0.317381 0,0.07517 0.008,0.367496 0.008,0.367496 l -0.59532,0.550407 -0.24805,0.614212 -0.87407,0.862258 -0.38979,1.181177 -0.23623,0.177176 c 0,0 -0.10373,0.239614 -0.13714,0.339841 -0.0334,0.100224 -0.48442,0.400902 -0.48442,0.400902 l 0.0668,0.53454 -0.4009,0.551244 0.0334,0.484428 -0.21716,0.183745 0.0501,0.367496 -0.16704,0.150339 -0.0835,0.701582 -0.23386,0.150339 0.0835,0.534543 -0.16704,0.11693 0.0167,0.417605 -0.18374,0.01669 0.0501,0.952151 -0.20046,0.06681 -0.26727,1.804069 c 0,0 -0.71828,-0.08352 -0.70158,-0.01669 0.0167,0.06682 0.0334,0.751695 0.0334,0.751695 l -1.60361,0.03341 c 0,0 0.15033,0.467723 0.0501,0.467723 -0.10023,0 -1.57021,0.0167 -1.57021,0.0167 l -1.1693,3.808592 -0.53454,0.06682 -0.60136,1.77066 6.64833,4.242893 c 0,0 0.0252,2.216148 0.11967,2.783112 0.0945,0.566957 0.28349,2.315097 0.28349,2.315097 l 2.59858,5.14992 0.0236,1.74814 c 0,0 0.82682,1.86626 0.73233,1.88988 -0.0945,0.0236 -3.63802,2.05525 -3.63802,2.05525 l 0.24782,2.86767 0.66817,1.70385 3.57473,1.40316 h 0.60136 l 2.07134,-1.70384 0.90203,-0.80181 1.06908,0.20045 c 0,0 1.06908,0.4009 1.1693,0.53454 0.10023,0.13363 0.66818,1.26953 0.66818,1.26953 0,0 0.70158,0.50113 0.56795,0.63476 -0.13364,0.13364 -2.40543,2.63929 -2.40543,2.63929 l -5.41221,1.93771 -0.0334,0.46772 c 0,0 -5.01131,2.07133 -5.17835,2.10474 -0.16705,0.0334 -1.77066,0.40091 -1.77066,0.40091 l -0.63477,-1.9043 0.33409,-0.23386 c 0,0 -0.26727,-0.10023 -0.30069,-1.00226 -0.0334,-0.90203 0.0668,-3.44109 0.0334,-3.80859 -0.0334,-0.36749 -2.40543,-6.1472 -2.60588,-6.38106 -0.20044,-0.23386 -1.10249,-0.60136 -1.10249,-0.73499 0,-0.13363 0.0334,-1.00226 0.0334,-1.00226 0,0 -1.00226,-0.63477 -1.00226,-1.00226 0,-0.3675 -0.53454,-6.41447 -0.53454,-6.41447 0,0 -0.008,-0.56498 0.12192,-0.83665 0.12993,-0.27167 1.77178,-2.18517 1.53553,-2.2206 -0.23623,-0.0354 -4.7247,0.18899 -4.7247,0.18899 l -2.84663,7.46502 -11.2448,4.58296 -1.01581,-0.44885 -1.84263,0.73233 c 0,0 -1.77176,-3.68527 -2.12612,-3.66164 -0.35435,0.0236 -2.69308,0.11812 -3.07105,0.23623 -0.37798,0.11812 -3.44904,0.94494 -3.44904,0.94494 0,0 -2.12611,2.74033 -2.33872,2.95294 -0.21262,0.21262 -1.18118,1.41742 -1.18118,1.41742 l -0.21259,4.74832 c 0,0 -0.63784,0.59059 -0.96857,0.63784 -0.33073,0.0472 -1.77176,0.0709 -1.77176,0.0709 0,0 -1.01581,-0.73233 -1.03944,-1.06306 -0.0236,-0.33073 -0.3071,-3.73252 -0.14174,-4.63021 0.16537,-0.89769 0.8032,-3.73251 0.8032,-3.73251 0,0 1.7009,-2.69308 1.48828,-2.69308 -0.21261,0 -1.27567,-0.0473 -1.27567,-0.0473 l 0.42287,-3.42459 c 0,0 0.80181,-2.65599 0.88533,-2.65599 0.0835,0 1.00226,-0.0501 1.00226,-0.0501 0,0 0.73499,-0.0167 0.93544,0.15034 0.20045,0.16704 0.31739,0.50112 0.31739,0.50112 l 1.43657,0.28398 c 0,0 0.55124,1.08578 0.61806,1.08578 0.0668,0 1.60362,0.10023 1.75396,0.0334 0.15033,-0.0668 5.72958,-0.98556 5.72958,-0.98556 l 1.45328,-2.50565 c 0,0 4.15939,0.51784 4.35984,0.56795 0.20045,0.0501 4.12597,-0.0334 4.12597,-0.0334 0,0 0.58465,0.90204 0.51784,0.66817 -0.0668,-0.23386 -1.38646,-5.562519 -1.38646,-5.562519 0,0 -0.58003,-1.160314 -0.72178,-2.128881 -0.14174,-0.968566 -0.49609,-3.992375 -0.47247,-4.464844 0.0236,-0.472472 0.18899,-1.748142 0.18899,-1.748142 l -0.54334,-0.28348 0.57974,-2.708545 -2.25701,-3.209147 c 0,0 0.0827,-1.547339 0.0354,-1.630021 -0.0473,-0.08268 -0.57878,-0.992187 -0.57878,-0.992187 l 2.36235,-7.783947 c 0,0 -0.68508,-0.566965 -0.61421,-0.661458 0.0709,-0.0945 1.15755,-1.252048 1.15755,-1.252048 l -0.85044,-2.031622 1.32291,-0.944941 c 0,0 -0.66146,-1.748139 -0.54334,-1.748139 0.11812,0 0.99219,-0.661458 0.99219,-0.661458 l -0.3071,-1.630021 1.41741,-0.755955 -0.56697,-1.677267 1.84264,-0.968566 -0.21262,-2.031622 c 0,0 1.91351,-0.519715 1.91351,-0.661458 0,-0.14174 0.18898,-1.913504 0.18898,-1.913504 0,0 1.61309,-0.04065 1.61309,-0.307916 0,-0.267269 0.33409,-1.703843 0.33409,-1.703843 0,0 2.03793,-0.167045 2.03793,-0.30068 0,-0.133633 0.33408,-1.46998 0.33408,-1.46998 l 2.00453,-0.06682 0.4009,-1.770661 2.10475,0.23386 1.23612,-1.77066 c 0,0 2.10475,0.835218 2.37202,0.601355 0.26727,-0.23386 0.60135,-0.935442 0.86862,-0.902033 0.26727,0.03341 2.40543,1.202711 2.47225,1.069078 0.0668,-0.133636 0.53454,-0.734991 0.53454,-0.734991 l 2.57247,1.169305 0.16704,0.534537 0.60136,-0.133633 1.97111,0.601356 0.83522,0.835218 v 0.935442 l 1.43657,0.835218 0.593,0.0084 0.88533,-1.611968 c 0,0 1.13057,-1.354014 1.21325,-1.401263 0.0827,-0.04725 0.99219,-0.437033 0.99219,-0.437033 z"
       style="opacity:1;fill:#f5e5c1;fill-opacity:1;stroke:#3d3d3d;stroke-width:0.30000001;stroke-linecap:butt;stroke-linejoin:miter;stroke-miterlimit:4;stroke-dasharray:none;stroke-opacity:1" />
  </g>
  <g
     inkscape:label="Scout"
     id="layer6"
     inkscape:groupmode="layer">
    <path
       sodipodi:nodetypes="ccccccccccccccccccccccccccccccccccccccccccccsccssccsccccccccccccccccccccccccccccsccccccccccccccscccccccccccccccccccccccccccccccscsccccccccccccccccccccccccccscccccccccccccccccccccccscccccccccccccccccscccccccccccccccscccccssccccscccccccc"
       inkscape:connector-curvature="0"
       id="path1394"
       d="m 53.719864,59.729687 c 0,0 2.468658,1.842632 2.338729,1.925314 -0.129929,0.08268 -0.909505,0.803201 -0.909505,0.803201 l -0.248047,0.720516 2.126115,1.641835 c 0,0 -2.326915,1.039434 -2.445033,0.968563 -0.118118,-0.07087 -1.063056,-0.673269 -1.063056,-0.673269 l -0.05906,1.606399 0.200801,0.354354 c 0,0 -0.03544,0.283479 -0.153554,0.259857 -0.118118,-0.02363 -0.850445,-0.212611 -0.850445,-0.212611 l -0.355502,1.358395 c -0.469273,0.527909 -1.030208,1.01238 -1.250898,1.222473 0,0 -0.253952,0.01181 -0.395694,-1.2e-5 -0.01773,-0.05906 -1.582775,-1.399694 -1.64774,-1.41741 -0.06496,-0.01773 -0.912458,0.06496 -0.912458,0.06496 -0.681783,0.26931 -0.581965,0.204335 -1.154598,0.484287 l 0.07678,1.057153 c 0,0 0.01773,0.7028 0.0059,0.750046 -0.0118,0.04725 -0.271668,0.968563 -0.271668,0.968563 l 0.295293,0.779576 -1.051245,2.574962 c 0,0 -0.980377,0.507908 -1.051248,0.637837 -0.07087,0.129929 -2.279668,2.870255 -2.279668,2.870255 0,0 1.322916,0.944941 1.41741,1.015812 0.0945,0.07087 0.637836,0.437036 0.637836,0.437036 l 2.917502,2.870256 0.354354,0.0118 0.835636,0.839928 1.637027,1.135896 1.369756,0.851921 0.534538,0.484428 0.634767,0.952146 -0.369705,0.921044 -0.366165,0.602398 -0.165364,0.236236 c 0,0 -0.212611,-0.129929 -0.188987,-0.07087 0.02363,0.05906 -0.09449,0.549249 -0.118118,0.555154 -0.02363,0.0059 -0.702799,0.744141 -0.702799,0.744141 l -0.236236,-0.01773 -0.218517,-0.265764 -0.419317,0.354352 -0.366165,0.0059 -0.295293,-0.383884 c 0,0 -0.360259,0.271671 -0.437036,0.271671 -0.07678,0 -0.631928,-0.0118 -0.631928,-0.0118 l -0.566965,-1.411507 c 0,0 -0.630291,-0.627311 -0.747223,-0.827765 -0.11693,-0.200451 -0.250563,-0.88533 -0.46772,-1.035669 -0.217157,-0.150339 -1.486689,-1.720546 -1.486689,-1.720546 l 0.185727,-0.278463 c 0,0 -1.535528,-1.293387 -2.83482,-2.285574 -1.299294,-0.992188 -2.256046,-1.570964 -2.256046,-1.570964 0,0 -0.803198,-1.086683 -0.862259,-1.240234 -0.05906,-0.153554 -0.236233,-0.484283 -0.236233,-0.484283 l 0.08268,-0.956752 -1.110305,1.240235 -1.192988,1.641835 -1.157552,2.090679 0.153554,0.850447 0.14174,0.129929 -1.133928,1.937129 -0.578776,0.224422 -0.815012,1.358352 0.626023,0.413412 0.791387,0.6024 1.122117,0.637834 0.388432,0.767718 c 0,0 0.334087,0.517834 0.417608,0.584649 0.08352,0.06682 0.618061,0.517835 0.618061,0.517835 l 0.23386,0.601358 c 0,0 2.287167,4.804482 2.310789,4.898975 0.02363,0.0945 0.944941,2.315104 0.944941,2.315104 l 0.330729,0.59059 0.496093,3.212812 c 0,0 -2.245074,3.18123 -2.278483,3.28145 -0.03341,0.10023 0,2.13816 0.05011,2.35532 0.05011,0.21715 0.217157,1.70384 0.217157,1.70384 l -0.23386,0.30068 -2.088044,1.00226 c 0,0 -0.501129,4.76074 -0.501129,5.02801 0,0.26726 -0.367495,2.10474 -0.334086,2.37201 0.03341,0.26727 0,1.50339 0,1.50339 l 0.935442,0.60136 1.937705,0.83522 1.770661,0.36749 1.737251,0.0334 0.501129,0.46772 v 0.83522 l -2.004521,1.00226 c 0,0 -0.701521,0.35109 -1.292108,0.2566 -0.590587,-0.0945 -2.976563,-0.25986 -2.976563,-0.25986 l -1.582774,0.18899 c 0,0 -0.377979,0.21261 -1.015812,0.18899 -0.637834,-0.0236 -1.441035,-0.11812 -1.535528,-0.35436 -0.09449,-0.23623 -0.354354,-0.11811 -0.354354,-0.82682 0,-0.7087 0.448847,-1.9135 0.448847,-1.9135 l 0.307107,-0.61421 0.307105,-0.14174 -0.04725,-4.4176 c 0,0 -0.236236,-1.44104 -0.259858,-1.63002 -0.02363,-0.18899 0,-4.06325 0,-4.06325 0,0 -1.866259,-1.41741 -1.795388,-1.5119 0.07087,-0.0945 0.708705,-1.13393 0.755952,-1.27567 0.04725,-0.14174 0.968565,-2.05525 1.13393,-2.43322 0.165364,-0.37798 0.354351,-0.8977 0.354351,-0.8977 l -0.543341,-0.68508 c 0,0 1.937129,-2.4096 1.842635,-2.50409 -0.09449,-0.0945 -1.157552,-1.18118 -1.157552,-1.18118 0,0 -1.476113,-3.068954 -1.526227,-3.152477 -0.05011,-0.08352 -0.868625,-1.236121 -0.935443,-1.436574 -0.06682,-0.200451 -0.534537,-1.085781 -0.534537,-1.085781 L 30.903033,94.45746 c 0,0 -0.451017,2.639285 -1.119193,4.760738 -0.668173,2.121462 -1.787363,5.178362 -1.787363,5.178362 l -2.790191,1.96594 -0.448847,-0.0236 -1.441034,-1.1103 -0.921317,-1.63003 -1.81901,-1.48828 -2.291481,-1.27567 -0.283482,-1.653656 0.306847,-0.806284 -7.370277,-5.784675 c 0,0 -0.413412,-0.106307 -1.3583521,-0.07087 -0.9449403,0.03543 -1.8544455,0.188989 -2.126116,0.224425 -0.2716704,0.03543 -2.0552454,0.850445 -2.1851749,0.88588 -0.1299292,0.03544 -0.720517,0.661459 -0.8976934,0.661459 -0.1771764,0 -0.6850819,0.07087 -0.7323288,0.0118 -0.047247,-0.05906 -0.3307292,-0.153551 -0.3307292,-0.377976 0,-0.224422 0.2598587,-0.88588 0.484282,-1.204799 0.2244233,-0.318918 1.3229166,-1.535527 1.4174107,-1.61821 0.094494,-0.08268 0.4134115,-0.425222 0.7913878,-0.590587 0.3779761,-0.165364 2.0316219,-0.93313 2.3151041,-1.122119 0.283482,-0.188986 1.6654574,-1.381974 1.6654574,-1.381974 0,0 0.9803764,-0.602401 1.1693634,-0.744141 0.188989,-0.14174 0.744141,-0.14174 0.744141,-0.14174 l 0.626023,0.389787 c 0,0 0.590588,1.015812 0.649647,1.110306 0.05906,0.09449 0.27167,1.074869 0.27167,1.074869 0,0 0.04725,0.767763 0.02362,0.720516 -0.02362,-0.04725 -0.177176,-0.129929 -0.177176,-0.129929 0,0 -0.153553,0.295294 -0.01181,0.437037 0.141741,0.141739 2.01981,1.346538 2.01981,1.346538 l 0.909506,0.566978 c 0,0 1.039435,0.236236 1.299293,0.33073 0.259859,0.09449 1.441034,0.637833 1.441034,0.637833 l 1.488282,1.086684 0.377976,0.307104 0.07087,0.04134 0.696894,-0.253952 c 0,0 0.67327,-0.34254 0.820917,-0.377976 0.147647,-0.03544 0.531529,-0.07678 0.531529,-0.07678 l 0.265765,0.265764 0.224423,-2.12021 0.08865,-3.733167 c 0,0 0.490122,-2.840075 0.490122,-3.005439 0,-0.165365 0.496094,-1.771764 0.496094,-1.771764 l 2.315105,-3.401785 0.637833,-0.188989 0.803199,-1.252046 0.0945,-1.08668 0.637833,-1.13393 -0.992187,-0.04725 -1.913504,-0.590587 -1.417411,-1.204799 -0.926071,-1.033264 c 0,0 -0.484426,-1.77066 -0.467722,-1.854181 0.01671,-0.08352 0.701583,-1.169305 0.701583,-1.169305 l 2.255086,-1.586913 3.4578,-2.188268 3.407685,-1.135896 3.207235,-0.902036 0.7195,0.136975 c 0,0 0.566965,-0.507905 0.578776,-0.566963 0.01183,-0.05906 0.129931,-0.720518 0.129931,-0.720518 l 0.744141,-0.73233 0.838634,-0.649644 1.606399,-0.259861 c 0,0 0.354351,0.188989 0.519716,0.07087 0.165364,-0.118118 2.062477,-1.788702 2.246225,-1.939041 0.183748,-0.150339 1.620321,-1.720548 1.620321,-1.720548 l 0.0167,-0.46772 0.618061,-0.701582 1.069078,-2.388722 c 0,0 0.335489,-0.908873 0.40636,-1.026991 0.07088,-0.118118 0.212619,-0.472472 0.212619,-0.472472 0,0 -2.924172,-1.74118 -3.191441,-1.807998 -0.267269,-0.06682 -4.409948,-2.372016 -4.744034,-2.57247 -0.334087,-0.200451 -3.708363,-2.806329 -3.708363,-2.806329 L 31.303946,43.19187 c 0,0 -1.770661,-1.302938 -1.904296,-1.436574 -0.133636,-0.133633 -0.400905,-0.868624 -0.400905,-0.868624 l 0.23386,-1.469983 1.169305,-1.503392 0.734991,-0.434313 1.135896,0.06682 1.069078,0.634764 c 0,0 1.703843,1.503392 1.870887,1.603619 0.167042,0.100226 2.772921,2.338607 2.772921,2.338607 l 0.835218,0.868627 0.902033,1.302938 0.634765,0.133635 0.835218,0.634765 0.968851,0.501131 1.202714,1.269529 2.706106,2.839739 2.372016,2.605878 0.06682,-0.267268 c 0,0 0.517835,-0.417611 0.651468,-0.517835 0.133636,-0.100227 0.400905,-0.217157 0.400905,-0.217157 l 1.052375,0.46772 1.753954,1.21942 0.885333,1.018963 c 0,0 0.417608,0.985557 0.417608,1.085784 0,0.100224 0.03341,0.601355 0.03341,0.601355 l -0.267272,0.283975 h 0.45102 l 0.451016,0.250566 0.451017,0.58465 c 0,0 0.01669,0.53454 0.01669,0.601358 0,0.06682 -0.150339,0.684876 -0.217157,0.751694 -0.06682,0.06682 -0.618061,0.484426 -0.684879,0.534541 -0.06682,0.05011 -0.7684,0.11693 -0.835215,0.100224 -0.06682,-0.01669 -0.693232,-0.409255 -0.693232,-0.409255 l -0.11693,-0.192101 c 0,0 -0.208805,-0.263093 -0.208805,-0.346616 0,-0.08352 0.0668,-0.396728 0.02505,-0.346613 -0.04176,0.05011 -0.325734,0.409255 -0.325734,0.409255 l 0.250566,0.158691 0.283972,0.183748 0.07517,0.208804 0.701583,0.367496 -0.06682,0.334086 z"
       style="fill:#385c78;fill-opacity:1;stroke:#3d3d3d;stroke-width:0.30000001;stroke-linecap:butt;stroke-linejoin:miter;stroke-miterlimit:4;stroke-dasharray:none;stroke-opacity:1" />
    <path
       sodipodi:nodetypes="ccccccccccccccccccccccccccccccccccccccccccccsccssccsccccccccccccccccccccccccccccsccccccccccccccscccccccccccccccccccccccccccccccscsccccccccccccccccccccccccccscccccccccccccccccccccccscccccccccccccccccscccccccccccccccscccccssccccscccccccc"
       inkscape:connector-curvature="0"
       id="path1394-8"
       d="m 60.06977,57.612917 c 0,0 2.46865,1.842632 2.33872,1.925314 -0.12992,0.08268 -0.9095,0.803201 -0.9095,0.803201 l -0.24805,0.720516 2.12612,1.641836 c 0,0 -2.32692,1.039434 -2.44504,0.968563 -0.11811,-0.07087 -1.06305,-0.67327 -1.06305,-0.67327 l -0.0591,1.6064 0.2008,0.354353 c 0,0 -0.0354,0.28348 -0.15355,0.259858 -0.11812,-0.02363 -0.85045,-0.212611 -0.85045,-0.212611 l -0.3555,1.358395 c -0.46927,0.527907 -1.03021,1.01238 -1.2509,1.222473 0,0 -0.25395,0.0118 -0.39569,-1.4e-5 -0.0177,-0.05906 -1.58278,-1.399693 -1.64774,-1.41741 -0.065,-0.01773 -0.91246,0.06496 -0.91246,0.06496 -0.68179,0.269311 -0.58197,0.204335 -1.1546,0.484288 l 0.0768,1.057153 c 0,0 0.0177,0.7028 0.006,0.750046 -0.0118,0.04725 -0.27167,0.968563 -0.27167,0.968563 l 0.2953,0.779574 -1.05125,2.574962 c 0,0 -0.98038,0.50791 -1.05125,0.637839 -0.0709,0.129929 -2.27967,2.870255 -2.27967,2.870255 0,0 1.32292,0.944941 1.41741,1.01581 0.0945,0.07087 0.63784,0.437036 0.63784,0.437036 l 2.9175,2.87026 0.35436,0.0118 0.83563,0.83993 1.63703,1.13589 1.36975,0.85192 0.53454,0.48443 0.63477,0.95215 -0.36971,0.92104 -0.36616,0.6024 -0.16536,0.23624 c 0,0 -0.21261,-0.12993 -0.18899,-0.0709 0.0236,0.0591 -0.0945,0.54925 -0.11812,0.55515 -0.0236,0.006 -0.7028,0.74414 -0.7028,0.74414 l -0.23623,-0.0177 -0.21852,-0.26576 -0.41932,0.35435 -0.36616,0.006 -0.2953,-0.38388 c 0,0 -0.36025,0.27167 -0.43703,0.27167 -0.0768,0 -0.63193,-0.0118 -0.63193,-0.0118 l -0.56696,-1.41151 c 0,0 -0.6303,-0.62731 -0.74723,-0.82777 -0.11693,-0.20045 -0.25056,-0.88533 -0.46772,-1.03566 -0.21715,-0.15034 -1.48669,-1.72055 -1.48669,-1.72055 l 0.18573,-0.27846 c 0,0 -1.53553,-1.29339 -2.83482,-2.28558 -1.29929,-0.99219 -2.25605,-1.570961 -2.25605,-1.570961 0,0 -0.80319,-1.086683 -0.86226,-1.240234 -0.0591,-0.153554 -0.23623,-0.484283 -0.23623,-0.484283 l 0.0827,-0.956752 -1.1103,1.240235 -1.19299,1.641835 -1.15755,2.09068 0.15355,0.85045 0.14174,0.12992 -1.13393,1.93713 -0.57877,0.22443 -0.81501,1.35835 0.62602,0.41341 0.79139,0.6024 1.12211,0.63783 0.38843,0.76772 c 0,0 0.33409,0.51784 0.41761,0.58465 0.0835,0.0668 0.61806,0.51784 0.61806,0.51784 l 0.23386,0.60135 c 0,0 2.28717,4.80449 2.31079,4.89898 0.0236,0.0945 0.94494,2.3151 0.94494,2.3151 l 0.33073,0.59059 0.4961,3.212793 c 0,0 -2.24508,3.18123 -2.27849,3.28146 -0.0334,0.10023 0,2.13816 0.0501,2.35531 0.0501,0.21716 0.21716,1.70384 0.21716,1.70384 l -0.23386,0.30068 -2.08804,1.00227 c 0,0 -0.50113,4.76074 -0.50113,5.028 0,0.26727 -0.3675,2.10475 -0.33409,2.37202 0.0334,0.26726 0,1.50338 0,1.50338 l 0.93544,0.60137 1.93771,0.83522 1.77066,0.36749 1.73725,0.0334 0.50113,0.46772 v 0.83522 l -2.00452,1.00226 c 0,0 -0.70152,0.35109 -1.29211,0.2566 -0.59059,-0.0945 -2.97656,-0.25986 -2.97656,-0.25986 l -1.58278,0.18899 c 0,0 -0.37798,0.21261 -1.01581,0.18899 -0.63783,-0.0236 -1.44103,-0.11812 -1.53553,-0.35436 -0.0945,-0.23623 -0.35435,-0.11811 -0.35435,-0.82682 0,-0.7087 0.44885,-1.9135 0.44885,-1.9135 l 0.3071,-0.61421 0.30711,-0.14174 -0.0473,-4.4176 c 0,0 -0.23624,-1.44104 -0.25986,-1.63002 -0.0236,-0.18899 0,-4.06325 0,-4.06325 0,0 -1.86626,-1.41741 -1.79539,-1.5119 0.0709,-0.0945 0.70871,-1.13393 0.75595,-1.27567 0.0472,-0.14174 0.96857,-2.05525 1.13393,-2.43322 0.16537,-0.37798 0.35435,-0.8977 0.35435,-0.8977 l -0.54334,-0.68508 c 0,0 1.93713,-2.409597 1.84264,-2.504087 -0.0945,-0.0945 -1.15755,-1.181171 -1.15755,-1.181171 0,0 -1.47612,-3.068955 -1.52623,-3.152475 -0.0501,-0.0835 -0.86863,-1.23612 -0.93544,-1.43658 -0.0668,-0.20045 -0.53454,-1.08577 -0.53454,-1.08577 l -0.28397,-0.30068 c 0,0 -0.45102,2.63928 -1.1192,4.76074 -0.66817,2.121449 -1.78736,5.178343 -1.78736,5.178343 l -2.79019,1.96594 -0.44885,-0.0236 -1.44103,-1.1103 -0.92132,-1.63003 -1.81901,-1.488277 -2.29148,-1.275664 -0.28348,-1.653652 0.30684,-0.80628 -7.37027,-5.78468 c 0,0 -0.41342,-0.1063 -1.35836,-0.0709 -0.944941,0.0354 -1.854443,0.18899 -2.126113,0.22443 -0.271671,0.0354 -2.055247,0.85044 -2.185176,0.88588 -0.129929,0.0354 -0.720517,0.66146 -0.897694,0.66146 -0.177176,0 -0.685083,0.0709 -0.7323287,0.0118 -0.04725,-0.0591 -0.33073,-0.15355 -0.33073,-0.37798 0,-0.22442 0.259859,-0.88588 0.4842817,-1.2048 0.224424,-0.31892 1.322918,-1.53553 1.417412,-1.61821 0.09449,-0.0827 0.413412,-0.42522 0.791389,-0.59059 0.377976,-0.16536 2.031623,-0.93313 2.315105,-1.12211 0.283483,-0.18899 1.665454,-1.38198 1.665454,-1.38198 0,0 0.98038,-0.6024 1.16937,-0.74414 0.18899,-0.14174 0.74414,-0.14174 0.74414,-0.14174 l 0.62602,0.38979 c 0,0 0.59059,1.01581 0.64965,1.1103 0.0591,0.0945 0.27167,1.07487 0.27167,1.07487 0,0 0.0473,0.76777 0.0236,0.72052 -0.0236,-0.0473 -0.17718,-0.12993 -0.17718,-0.12993 0,0 -0.15355,0.29529 -0.0118,0.43704 0.14174,0.14174 2.01981,1.34653 2.01981,1.34653 l 0.90951,0.56698 c 0,0 1.03943,0.23624 1.29929,0.33073 0.25986,0.0945 1.44104,0.63784 1.44104,0.63784 l 1.48828,1.08668 0.37797,0.3071 0.0709,0.0413 0.6969,-0.25395 c 0,0 0.67327,-0.34254 0.82091,-0.37797 0.14765,-0.0354 0.53153,-0.0768 0.53153,-0.0768 l 0.26577,0.26576 0.22442,-2.12021 0.0887,-3.73317 c 0,0 0.49012,-2.84007 0.49012,-3.00544 0,-0.16536 0.4961,-1.77176 0.4961,-1.77176 l 2.3151,-3.401783 0.63784,-0.188989 0.80319,-1.252049 0.0945,-1.086678 0.63784,-1.13393 -0.99219,-0.04725 -1.9135,-0.590587 -1.41741,-1.204801 -0.92608,-1.033265 c 0,0 -0.48442,-1.770657 -0.46772,-1.854178 0.0167,-0.08352 0.70159,-1.169305 0.70159,-1.169305 l 2.25508,-1.586915 3.4578,-2.188269 3.40768,-1.135896 3.20724,-0.902036 0.7195,0.136978 c 0,0 0.56697,-0.507908 0.57878,-0.566965 0.0118,-0.05906 0.12993,-0.720516 0.12993,-0.720516 l 0.74414,-0.732331 0.83863,-0.649644 1.6064,-0.259861 c 0,0 0.35435,0.188989 0.51972,0.07087 0.16536,-0.118118 2.06248,-1.788703 2.24622,-1.939041 0.18375,-0.150339 1.62032,-1.720549 1.62032,-1.720549 l 0.0167,-0.467719 0.61806,-0.701583 1.06908,-2.388722 c 0,0 0.33549,-0.908872 0.40636,-1.02699 0.0709,-0.118119 0.21262,-0.472472 0.21262,-0.472472 0,0 -2.92417,-1.74118 -3.19144,-1.807999 -0.26727,-0.06682 -4.40995,-2.372016 -4.74403,-2.57247 -0.33409,-0.200453 -3.70836,-2.806331 -3.70836,-2.806331 L 37.65397,41.07511 c 0,0 -1.77066,-1.302938 -1.9043,-1.436574 -0.13363,-0.133633 -0.4009,-0.868624 -0.4009,-0.868624 l 0.23386,-1.469983 1.1693,-1.503392 0.73499,-0.434313 1.1359,0.06682 1.06908,0.634764 c 0,0 1.70384,1.503392 1.87088,1.603619 0.16705,0.100226 2.77293,2.338607 2.77293,2.338607 l 0.83521,0.868627 0.90204,1.302938 0.63476,0.133635 0.83522,0.634765 0.96885,0.501131 1.20271,1.269529 2.70611,2.839739 2.37202,2.605878 0.0668,-0.267268 c 0,0 0.51783,-0.417611 0.65146,-0.517835 0.13364,-0.100227 0.40091,-0.217157 0.40091,-0.217157 l 1.05237,0.46772 1.75396,1.21942 0.88533,1.018963 c 0,0 0.41761,0.985557 0.41761,1.085784 0,0.100224 0.0334,0.601355 0.0334,0.601355 l -0.26728,0.283975 h 0.45103 l 0.45101,0.250566 0.45102,0.58465 c 0,0 0.0167,0.53454 0.0167,0.601358 0,0.06682 -0.15034,0.684876 -0.21716,0.751694 -0.0668,0.06682 -0.61806,0.484426 -0.68488,0.534541 -0.0668,0.05011 -0.7684,0.11693 -0.83521,0.100224 -0.0668,-0.01669 -0.69323,-0.409255 -0.69323,-0.409255 L 58.60954,56.05891 c 0,0 -0.20881,-0.263093 -0.20881,-0.346616 0,-0.08352 0.0668,-0.396728 0.0251,-0.346613 -0.0418,0.05011 -0.32574,0.409255 -0.32574,0.409255 l 0.25057,0.158691 0.28397,0.183748 0.0752,0.208804 0.70158,0.367496 -0.0668,0.334086 z"
       style="fill:#5b7a8c;fill-opacity:1;stroke:#3d3d3d;stroke-width:0.30000001;stroke-linecap:butt;stroke-linejoin:miter;stroke-miterlimit:4;stroke-dasharray:none;stroke-opacity:1" />
    <path
       sodipodi:nodetypes="ccccccccccccccccccccccccccccccccccccccccccccsccssccsccccccccccccccccccccccccccccsccccccccccccccscccccccccccccccccccccccccccccccscsccccccccccccccccccccccccccscccccccccccccccccccccccscccccccccccccccccscccccccccccccccscccccssccccscccccccc"
       inkscape:connector-curvature="0"
       id="path1394-8-2"
       d="m 66.948943,56.025415 c 0,0 2.46865,1.842632 2.338721,1.925314 -0.129921,0.08268 -0.9095,0.803201 -0.9095,0.803201 l -0.24805,0.720516 2.12612,1.641835 c 0,0 -2.32692,1.039434 -2.445041,0.968563 -0.11811,-0.07087 -1.06305,-0.673269 -1.06305,-0.673269 l -0.0591,1.606399 0.2008,0.354354 c 0,0 -0.0354,0.28348 -0.153549,0.259858 -0.11812,-0.02363 -0.85045,-0.212612 -0.85045,-0.212612 l -0.355502,1.358395 c -0.469267,0.527907 -1.030208,1.012381 -1.2509,1.222473 0,0 -0.253949,0.0118 -0.395689,-1.3e-5 -0.0177,-0.05906 -1.58278,-1.399694 -1.647741,-1.41741 -0.065,-0.01773 -0.912458,0.06496 -0.912458,0.06496 -0.681791,0.269312 -0.581972,0.204335 -1.154602,0.484288 l 0.0768,1.057154 c 0,0 0.0177,0.702799 0.006,0.750046 -0.0118,0.04725 -0.271671,0.968563 -0.271671,0.968563 l 0.295301,0.779573 -1.05125,2.574962 c 0,0 -0.98038,0.50791 -1.051251,0.637839 -0.0709,0.129929 -2.279668,2.870256 -2.279668,2.870256 0,0 1.322919,0.944941 1.41741,1.015809 0.0945,0.07087 0.637839,0.437036 0.637839,0.437036 l 2.917499,2.870261 0.354359,0.0118 0.835631,0.83993 1.63703,1.135891 1.369751,0.851921 0.53454,0.484428 0.63477,0.952151 -0.36971,0.921041 -0.36616,0.602398 -0.165362,0.236241 c 0,0 -0.212608,-0.129931 -0.188989,-0.0709 0.0236,0.0591 -0.0945,0.549251 -0.118121,0.555149 -0.0236,0.006 -0.702799,0.74414 -0.702799,0.74414 l -0.236231,-0.0177 -0.218519,-0.265759 -0.41932,0.354349 -0.366159,0.006 -0.295302,-0.383879 c 0,0 -0.360248,0.271669 -0.437028,0.271669 -0.0768,0 -0.631931,-0.0118 -0.631931,-0.0118 l -0.566959,-1.41151 c 0,0 -0.630301,-0.627311 -0.747231,-0.82777 -0.11693,-0.200451 -0.250561,-0.88533 -0.46772,-1.035659 -0.217149,-0.150341 -1.486689,-1.720551 -1.486689,-1.720551 l 0.18573,-0.27846 c 0,0 -1.535531,-1.293389 -2.83482,-2.28558 -1.299289,-0.99219 -2.256052,-1.570961 -2.256052,-1.570961 0,0 -0.803187,-1.086683 -0.862258,-1.240234 -0.0591,-0.153553 -0.236231,-0.484283 -0.236231,-0.484283 l 0.0827,-0.956752 -1.1103,1.240235 -1.192991,1.641835 -1.157549,2.090679 0.153548,0.85045 0.14174,0.129921 -1.13393,1.937131 -0.578768,0.22443 -0.815012,1.35835 0.62602,0.413409 0.79139,0.602401 1.122111,0.637828 0.38843,0.76772 c 0,0 0.334089,0.51784 0.41761,0.58465 0.0835,0.0668 0.618061,0.51784 0.618061,0.51784 l 0.23386,0.60135 c 0,0 2.28717,4.804492 2.310789,4.89898 0.0236,0.0945 0.944941,2.315102 0.944941,2.315102 l 0.330729,0.590589 0.496099,3.212791 c 0,0 -2.245079,3.181223 -2.278488,3.281453 -0.0334,0.10023 0,2.13817 0.0501,2.35531 0.0501,0.21717 0.217162,1.70384 0.217162,1.70384 l -0.233863,0.30068 -2.088039,1.00228 c 0,0 -0.501128,4.76074 -0.501128,5.02799 0,0.26728 -0.367501,2.10475 -0.334092,2.37203 0.0334,0.26726 0,1.50337 0,1.50337 l 0.935439,0.60138 1.937711,0.83522 1.77066,0.36749 1.737252,0.0334 0.501128,0.46772 v 0.83522 l -2.00452,1.00226 c 0,0 -0.701519,0.35109 -1.292109,0.2566 -0.590592,-0.0945 -2.976559,-0.25986 -2.976559,-0.25986 l -1.582783,0.18899 c 0,0 -0.377978,0.21261 -1.015809,0.18899 -0.637829,-0.0236 -1.44103,-0.11812 -1.535531,-0.35436 -0.0945,-0.23623 -0.354348,-0.11811 -0.354348,-0.82682 0,-0.7087 0.448849,-1.9135 0.448849,-1.9135 l 0.3071,-0.61421 0.307109,-0.14174 -0.0473,-4.4176 c 0,0 -0.236239,-1.44104 -0.259861,-1.63002 -0.0236,-0.18899 0,-4.06325 0,-4.06325 0,0 -1.866259,-1.41741 -1.795388,-1.5119 0.0709,-0.0945 0.70871,-1.13393 0.755949,-1.27567 0.0472,-0.14174 0.968571,-2.05526 1.13393,-2.43323 0.16537,-0.37798 0.354351,-0.8977 0.354351,-0.8977 l -0.54334,-0.68508 c 0,0 1.937128,-2.409587 1.84264,-2.504075 -0.0945,-0.0945 -1.157549,-1.181171 -1.157549,-1.181171 0,0 -1.476121,-3.068955 -1.526231,-3.152476 -0.0501,-0.0835 -0.86863,-1.23612 -0.93544,-1.436579 -0.0668,-0.200451 -0.53454,-1.085771 -0.53454,-1.085771 l -0.283972,-0.30068 c 0,0 -0.451019,2.639279 -1.119198,4.76074 -0.668171,2.121448 -1.787361,5.178332 -1.787361,5.178332 l -2.79019,1.96594 -0.44885,-0.0236 -1.44103,-1.1103 -0.92132,-1.630027 -1.81901,-1.488271 -2.29148,-1.275665 -0.28348,-1.653651 0.30684,-0.80628 -7.37027,-5.784681 c 0,0 -0.41342,-0.106299 -1.35836,-0.0709 -0.944941,0.0354 -1.854443,0.188989 -2.126113,0.22443 -0.271671,0.0354 -2.055247,0.85044 -2.185176,0.885878 -0.129929,0.0354 -0.720517,0.661461 -0.897694,0.661461 -0.177176,0 -0.685083,0.0709 -0.732329,0.0118 -0.04725,-0.0591 -0.33073,-0.153551 -0.33073,-0.377981 0,-0.22442 0.259859,-0.885881 0.484282,-1.204799 0.224424,-0.318921 1.322918,-1.535531 1.417412,-1.61821 0.09449,-0.0827 0.413412,-0.42522 0.791389,-0.59059 0.377976,-0.165362 2.031623,-0.93313 2.315105,-1.122111 0.283483,-0.188989 1.665454,-1.38198 1.665454,-1.38198 0,0 0.98038,-0.6024 1.16937,-0.74414 0.18899,-0.14174 0.74414,-0.14174 0.74414,-0.14174 l 0.62602,0.389789 c 0,0 0.59059,1.015812 0.64965,1.1103 0.0591,0.0945 0.27167,1.07487 0.27167,1.07487 0,0 0.0473,0.767771 0.0236,0.720521 -0.0236,-0.0473 -0.17718,-0.129929 -0.17718,-0.129929 0,0 -0.15355,0.295289 -0.0118,0.437039 0.14174,0.14174 2.01981,1.346531 2.01981,1.346531 l 0.90951,0.566978 c 0,0 1.03943,0.236241 1.29929,0.330732 0.25986,0.0945 1.441041,0.637839 1.441041,0.637839 l 1.488279,1.086681 0.37797,0.307099 0.0709,0.0413 0.696899,-0.253952 c 0,0 0.673271,-0.342538 0.82091,-0.377968 0.147651,-0.0354 0.531531,-0.0768 0.531531,-0.0768 l 0.26577,0.26576 0.224419,-2.120212 0.0887,-3.73317 c 0,0 0.49012,-2.840069 0.49012,-3.005439 0,-0.16536 0.4961,-1.771759 0.4961,-1.771759 l 2.3151,-3.401785 0.63784,-0.188989 0.803191,-1.252048 0.0945,-1.086678 0.63784,-1.13393 -0.992189,-0.04725 -1.9135,-0.590587 -1.41741,-1.204802 -0.92608,-1.033264 c 0,0 -0.48442,-1.770658 -0.467721,-1.854179 0.0167,-0.08352 0.701591,-1.169305 0.701591,-1.169305 l 2.25508,-1.586915 3.4578,-2.188268 3.40768,-1.135896 3.207239,-0.902036 0.7195,0.136977 c 0,0 0.566971,-0.507907 0.578782,-0.566965 0.0118,-0.05906 0.129929,-0.720516 0.129929,-0.720516 l 0.74414,-0.732331 0.838629,-0.649644 1.606402,-0.259861 c 0,0 0.354348,0.188989 0.519718,0.07087 0.165359,-0.118118 2.06248,-1.788703 2.24622,-1.939041 0.18375,-0.150339 1.620322,-1.720549 1.620322,-1.720549 l 0.01669,-0.467719 0.618061,-0.701583 1.069081,-2.388722 c 0,0 0.335489,-0.908872 0.40636,-1.02699 0.0709,-0.118119 0.212619,-0.472472 0.212619,-0.472472 0,0 -2.924169,-1.74118 -3.191441,-1.807999 -0.267269,-0.06682 -4.409951,-2.372016 -4.744029,-2.57247 -0.33409,-0.200453 -3.708361,-2.806331 -3.708361,-2.806331 l -4.677198,-3.37428 c 0,0 -1.770661,-1.302938 -1.904301,-1.436574 -0.13363,-0.133633 -0.4009,-0.868624 -0.4009,-0.868624 l 0.23386,-1.469983 1.169299,-1.503392 0.734992,-0.434313 1.135898,0.06682 1.069081,0.634764 c 0,0 1.70384,1.503392 1.870879,1.603619 0.16705,0.100226 2.772932,2.338607 2.772932,2.338607 l 0.83521,0.868627 0.902039,1.302938 0.634761,0.133635 0.835219,0.634765 0.968851,0.501131 1.202708,1.269529 2.706111,2.839739 2.372021,2.605878 0.0668,-0.267268 c 0,0 0.517829,-0.417611 0.651459,-0.517835 0.133641,-0.100227 0.40091,-0.217157 0.40091,-0.217157 l 1.05237,0.46772 1.75396,1.21942 0.88533,1.018963 c 0,0 0.417611,0.985557 0.417611,1.085784 0,0.100224 0.0334,0.601355 0.0334,0.601355 l -0.267283,0.283975 h 0.45103 l 0.451012,0.250566 0.451019,0.58465 c 0,0 0.0167,0.53454 0.0167,0.601358 0,0.06682 -0.150341,0.684876 -0.217159,0.751694 -0.0668,0.06682 -0.618061,0.484426 -0.684882,0.534541 -0.0668,0.05011 -0.7684,0.11693 -0.83521,0.100224 -0.0668,-0.01669 -0.69323,-0.409255 -0.69323,-0.409255 l -0.11693,-0.192101 c 0,0 -0.208809,-0.263093 -0.208809,-0.346616 0,-0.08352 0.0668,-0.396728 0.02511,-0.346613 -0.0418,0.05011 -0.325742,0.409255 -0.325742,0.409255 l 0.250571,0.158691 0.28397,0.183748 0.0752,0.208804 0.701579,0.367496 -0.0668,0.334086 z"
       style="fill:#f5e5c1;fill-opacity:1;stroke:#3d3d3d;stroke-width:0.30000001;stroke-linecap:butt;stroke-linejoin:miter;stroke-miterlimit:4;stroke-dasharray:none;stroke-opacity:1" />
  </g>
</svg>
